<?xml version="1.0" standalone="no"?>
<!DOCTYPE svg PUBLIC "-//W3C//DTD SVG 20010904//EN"
 "http://www.w3.org/TR/2001/REC-SVG-20010904/DTD/svg10.dtd">
<svg version="1.0" xmlns="http://www.w3.org/2000/svg"
 width="1224.000000pt" height="1632.000000pt" viewBox="0 0 1224.000000 1632.000000"
 preserveAspectRatio="xMidYMid meet">
<metadata>
Created by potrace 1.15, written by Peter Selinger 2001-2017
</metadata>
<g transform="translate(0.000000,1632.000000) scale(0.100000,-0.100000)"
fill="#000000" stroke="none">
<path d="M6402 12813 c-9 -13 -14 -15 -18 -5 -7 14 -80 16 -89 2 -3 -5 -26
-10 -49 -10 -41 0 -43 -1 -39 -27 3 -24 2 -25 -6 -8 -5 11 -10 14 -10 8 -2
-23 -21 -14 -22 10 -1 19 -2 19 -6 3 -3 -12 -8 -15 -12 -8 -4 6 -17 9 -30 5
-18 -4 -21 -11 -17 -29 5 -17 2 -24 -9 -24 -8 0 -15 6 -15 13 0 9 -2 9 -8 -1
-6 -8 -25 -11 -60 -8 -70 5 -147 -23 -182 -67 -13 -15 -23 -18 -49 -12 -28 6
-30 9 -19 23 12 13 10 14 -9 3 -13 -6 -20 -17 -17 -25 7 -17 -7 -26 -49 -32
-64 -8 -82 -14 -94 -31 -12 -16 -14 -16 -28 3 -14 18 -14 17 -5 -8 8 -23 7
-28 -5 -28 -8 0 -15 -4 -15 -10 0 -13 29 -1 52 22 10 10 29 18 43 18 14 0 25
5 25 10 0 6 9 10 20 10 24 0 26 -13 5 -30 -8 -6 -13 -17 -12 -23 3 -16 -41
-21 -57 -8 -10 8 -17 7 -26 -4 -7 -8 -16 -13 -20 -10 -4 3 -13 -2 -20 -10 -7
-8 -16 -12 -21 -9 -5 3 -9 0 -9 -5 0 -21 -18 -11 -32 18 -12 26 -16 28 -32 15
-16 -11 -17 -16 -6 -29 7 -8 10 -19 6 -22 -4 -4 -10 -2 -15 5 -5 9 -13 7 -29
-8 -25 -24 -32 -25 -32 -5 0 7 8 18 17 24 10 5 14 13 10 17 -4 4 -18 -3 -32
-16 -27 -26 -35 -17 -10 10 14 16 14 18 0 24 -9 3 -14 2 -11 -3 7 -10 -28 -43
-41 -39 -5 2 -24 -9 -42 -25 -24 -20 -29 -28 -18 -33 8 -3 15 -16 15 -30 0
-18 -6 -24 -24 -24 -12 0 -26 5 -29 10 -3 6 -12 10 -18 9 -9 0 -9 -2 1 -6 25
-10 11 -23 -25 -23 -51 0 -104 -40 -84 -63 7 -9 10 -21 6 -27 -3 -5 -2 -10 4
-10 5 0 11 4 13 9 5 16 58 0 69 -21 9 -16 7 -23 -10 -35 -24 -16 -28 -33 -8
-33 20 0 19 -40 -1 -41 -13 0 -12 -3 6 -11 12 -6 22 -14 22 -18 0 -11 -31 -36
-73 -59 -37 -20 -39 -21 -43 -4 -6 23 -46 23 -69 0 -9 -9 -26 -17 -38 -16 -21
0 -21 1 -2 9 17 7 17 9 3 9 -26 1 -22 21 5 21 12 0 29 5 37 10 11 8 8 9 -11 4
-15 -3 -30 -1 -33 5 -5 7 4 11 21 12 l28 1 -30 8 -30 7 33 13 c20 8 32 19 32
31 0 10 5 19 11 19 5 0 8 -4 4 -9 -3 -5 -1 -13 5 -16 8 -5 7 -11 -1 -21 -17
-20 -5 -28 21 -14 19 10 21 10 11 -8 -9 -17 -8 -18 25 -8 28 9 34 16 34 39 0
16 5 37 10 47 8 15 6 24 -10 40 -11 11 -21 20 -23 20 -2 0 -9 -16 -17 -35 -7
-19 -20 -37 -27 -39 -8 -3 -11 -1 -8 4 11 18 -66 11 -99 -9 -17 -10 -46 -19
-63 -19 -39 -1 -53 -8 -53 -28 0 -8 5 -12 10 -9 6 3 10 1 10 -4 0 -6 19 -12
43 -13 l42 -1 -38 -4 c-32 -4 -38 -8 -34 -23 3 -12 0 -17 -8 -14 -7 3 -15 -2
-19 -11 -3 -9 -10 -14 -15 -10 -6 3 -14 -3 -20 -12 -8 -15 -11 -10 -17 25 -7
42 -8 44 -37 38 -22 -4 -33 -1 -43 11 -17 23 -18 34 -1 28 18 -6 100 102 93
122 -5 13 -4 14 8 4 11 -9 21 -7 49 11 36 23 46 38 26 38 -25 0 -98 -42 -104
-59 -7 -23 -66 -86 -80 -86 -5 0 -11 -10 -13 -23 -2 -15 -21 -32 -55 -52 -29
-16 -58 -30 -65 -30 -7 0 -35 -22 -62 -50 -27 -27 -52 -50 -55 -50 -13 0 -3
29 15 45 11 10 18 20 15 23 -2 3 -27 -17 -54 -44 -27 -27 -61 -58 -75 -69 -25
-20 -35 -55 -16 -55 6 0 10 5 10 10 0 6 3 9 8 8 4 -1 23 14 43 35 40 41 62 46
87 21 15 -16 14 -19 -14 -43 -28 -24 -29 -28 -17 -54 12 -23 17 -26 35 -16 16
9 19 8 16 -3 -3 -7 -19 -13 -38 -14 -18 0 -38 -7 -45 -17 -7 -9 -29 -17 -52
-19 -36 -3 -43 -7 -54 -36 -9 -24 -18 -32 -30 -29 -11 3 -16 0 -12 -8 6 -18
-14 -55 -30 -54 -9 0 -9 2 1 6 21 8 13 33 -14 43 -18 7 -24 15 -20 26 3 9 6
22 6 29 0 7 15 16 33 19 21 4 42 18 55 36 31 41 27 49 -6 17 -17 -17 -35 -25
-44 -22 -9 4 -18 -1 -22 -10 -3 -9 -10 -14 -15 -11 -12 8 -23 -21 -27 -71 -2
-24 -15 -62 -29 -86 -29 -51 -30 -57 -10 -57 28 0 16 -37 -17 -53 -37 -18 -47
-15 -28 8 10 13 9 15 -9 15 -11 0 -23 0 -26 0 -3 0 -4 -2 -2 -4 5 -9 -46 -55
-69 -60 -13 -4 -24 -11 -24 -17 0 -7 7 -8 18 -4 9 4 28 10 42 13 25 5 25 5 5
-15 -11 -11 -21 -17 -23 -13 -5 12 -50 -1 -56 -16 -6 -16 10 -19 19 -4 11 18
23 11 23 -14 0 -22 -3 -24 -25 -15 -21 8 -24 6 -29 -20 -5 -21 -12 -29 -25
-28 -10 1 -19 6 -19 12 0 5 -7 1 -15 -9 -8 -11 -18 -16 -22 -12 -11 10 12 41
30 41 9 0 19 4 23 8 4 4 -4 7 -19 7 -14 0 -27 6 -30 13 -2 6 -3 4 -2 -5 2 -10
-3 -22 -10 -28 -7 -5 -10 -22 -7 -35 5 -28 -21 -65 -45 -65 -7 0 -16 -13 -19
-30 -7 -31 -22 -38 -41 -19 -7 7 -12 5 -15 -8 -4 -16 0 -18 29 -15 18 2 33 10
33 17 0 7 11 20 23 28 13 8 37 29 53 46 35 38 48 39 42 6 -4 -17 -1 -25 8 -25
8 0 15 -6 15 -12 1 -7 2 -19 3 -25 2 -23 21 -19 24 5 4 30 27 38 47 19 13 -13
13 -17 2 -24 -7 -4 -16 -16 -20 -25 -3 -10 -14 -18 -22 -18 -10 0 -13 -5 -9
-12 4 -6 3 -8 -3 -5 -13 8 -53 -20 -53 -38 0 -23 -50 -75 -65 -68 -8 3 -15 1
-15 -5 0 -6 -9 -8 -19 -5 -23 6 -51 -35 -32 -47 9 -5 9 -13 0 -33 -7 -15 -16
-27 -21 -27 -11 0 -10 28 2 35 6 3 10 11 10 16 0 6 -4 8 -9 5 -5 -3 -8 8 -7
25 0 18 -5 34 -11 36 -7 3 -13 -3 -13 -12 0 -9 4 -14 9 -11 20 13 -4 -41 -32
-71 -23 -25 -28 -37 -23 -58 5 -19 12 -25 22 -21 11 4 14 0 12 -17 -2 -18 1
-22 20 -20 27 3 29 -13 2 -22 -11 -3 -20 -11 -20 -17 0 -7 4 -7 13 0 10 8 16
6 25 -9 7 -11 8 -19 2 -19 -5 0 -10 6 -10 13 -1 7 -6 5 -14 -6 -8 -10 -20 -15
-30 -11 -11 4 -19 -2 -26 -21 -13 -33 -13 -38 1 -29 21 13 -2 -40 -27 -63 -13
-12 -24 -25 -24 -28 0 -3 -9 -15 -20 -27 -11 -12 -20 -16 -20 -10 0 9 -8 7
-25 -4 -35 -23 -32 -89 3 -78 14 5 14 3 -1 -9 -19 -16 -16 -57 4 -57 6 0 -3
-11 -18 -24 -28 -24 -28 -25 -8 -40 27 -20 29 -103 3 -112 -13 -4 -18 -16 -18
-44 0 -21 -5 -42 -10 -45 -6 -4 -8 -16 -4 -27 4 -15 3 -18 -6 -13 -9 5 -11 4
-6 -4 4 -6 12 -8 18 -5 8 5 9 -4 5 -27 -4 -19 -3 -28 1 -21 11 17 37 6 50 -21
7 -15 11 -17 12 -7 1 10 4 9 10 -5 8 -19 9 -19 9 3 1 15 -8 26 -24 34 -27 12
-31 39 -15 88 6 18 7 11 4 -21 -6 -46 -5 -46 27 -53 35 -7 79 14 79 38 0 20
-60 32 -71 15 -7 -11 -9 -10 -9 3 0 9 -3 25 -6 35 -5 16 -4 16 10 -1 14 -17
16 -18 16 -3 0 24 19 21 30 -5 7 -19 9 -16 9 21 1 39 -1 42 -16 30 -9 -8 -14
-9 -12 -4 23 51 36 78 60 128 33 65 36 82 14 73 -20 -7 -19 -2 8 39 26 42 34
43 47 9 13 -33 13 -34 -5 -34 -8 0 -15 7 -15 16 0 8 -5 12 -11 8 -8 -4 -8 -9
0 -17 6 -6 11 -22 11 -35 0 -32 32 -26 40 8 6 24 6 24 17 5 18 -32 25 -12 17
54 -6 55 -8 60 -26 50 -10 -5 -16 -14 -13 -20 9 -13 -7 -11 -28 5 -10 8 -15
20 -11 30 8 22 25 21 18 -1 -5 -16 -4 -16 10 1 8 10 17 24 20 30 3 7 8 6 15
-4 9 -13 11 -12 11 4 0 16 -5 18 -36 13 -34 -6 -35 -5 -20 12 20 22 21 47 2
54 -9 4 -12 14 -8 29 5 22 6 22 15 -5 13 -40 41 -35 44 7 4 46 25 98 30 74 2
-9 -1 -26 -7 -38 -6 -11 -9 -35 -6 -53 18 -116 17 -113 31 -94 8 12 15 14 20
8 3 -6 1 -11 -4 -11 -6 0 -11 -8 -10 -17 0 -11 3 -13 6 -5 2 6 14 12 26 12 18
0 19 2 7 10 -12 7 -12 12 -2 22 9 9 12 9 13 -2 1 -8 5 -4 10 10 9 25 9 25 5
-3 -2 -15 1 -30 5 -33 15 -9 10 -24 -5 -18 -8 3 -17 -1 -22 -8 -4 -7 -3 -10 1
-5 5 4 19 0 31 -8 21 -13 23 -13 18 0 -4 8 3 33 15 55 15 29 22 62 23 115 2
51 5 69 10 54 5 -12 5 -38 2 -57 -5 -25 -4 -33 5 -28 15 10 14 -5 -5 -49 -8
-20 -10 -34 -5 -30 6 3 11 0 11 -7 0 -19 -16 -40 -26 -36 -5 1 -10 -12 -12
-29 -4 -37 3 -41 30 -16 18 16 18 16 12 -3 -7 -16 -5 -17 8 -7 8 7 18 10 21 6
4 -3 18 -1 31 6 50 27 51 5 2 -42 -30 -29 -42 -47 -33 -47 9 0 20 7 25 16 12
22 35 8 29 -18 -4 -16 -3 -17 9 -7 8 6 14 17 14 25 0 7 10 24 23 38 16 19 26
23 37 17 12 -8 11 -11 -5 -17 -24 -10 -45 -29 -45 -43 0 -5 -5 -21 -12 -35 -9
-20 -14 -23 -25 -15 -9 8 -13 8 -13 1 0 -6 -10 -14 -22 -17 -13 -4 -38 -21
-55 -38 -18 -17 -33 -26 -33 -20 0 6 16 23 35 37 19 15 39 35 44 45 18 33 -25
17 -73 -27 -46 -42 -70 -56 -45 -26 11 14 11 18 -4 29 -17 12 -16 15 8 50 43
64 29 104 -26 75 -18 -10 -24 -4 -20 23 0 4 -4 7 -9 7 -6 0 -10 -10 -10 -22 0
-13 -4 -30 -9 -37 -6 -9 -6 -22 0 -32 7 -14 4 -18 -14 -21 -14 -2 -23 -11 -25
-26 -2 -13 -9 -21 -15 -19 -7 2 -18 -3 -25 -12 -10 -14 -11 -13 -5 4 3 11 3
17 -2 13 -4 -4 -14 0 -21 10 -11 15 -13 11 -11 -25 1 -29 6 -43 15 -43 7 0 10
5 6 12 -5 7 -3 8 6 3 7 -4 16 -2 21 6 4 7 10 11 14 8 7 -8 -30 -50 -41 -47 -5
1 -28 -11 -51 -27 -52 -37 -56 -64 -10 -85 17 -8 35 -13 40 -12 13 4 7 -49 -7
-64 -20 -19 -25 -18 -19 6 3 11 0 20 -6 20 -6 0 -11 4 -11 10 0 5 8 7 18 4 14
-5 15 -4 2 5 -21 14 -29 3 -42 -62 -9 -44 -9 -60 0 -69 9 -9 12 -7 12 9 0 26
10 53 19 53 8 0 -3 -91 -15 -130 -4 -14 -14 -31 -21 -39 -8 -7 -11 -21 -8 -31
7 -23 -4 -50 -21 -50 -8 0 -14 -4 -14 -10 0 -5 7 -7 15 -4 10 4 15 0 15 -15 0
-12 4 -21 8 -21 4 0 8 24 9 54 1 41 7 60 22 75 12 12 21 26 21 31 0 20 21 9
31 -17 11 -29 3 -86 -12 -77 -5 3 -9 0 -9 -6 0 -6 -10 -10 -22 -8 -21 3 -23
-1 -20 -33 4 -45 -15 -62 -36 -31 -8 12 -21 22 -28 22 -8 0 -14 5 -14 10 0 6
-4 10 -10 10 -5 0 -10 -9 -10 -21 0 -12 4 -17 11 -13 7 4 9 0 5 -12 -9 -32
-26 -222 -21 -236 3 -8 -4 -24 -15 -36 -12 -12 -18 -27 -15 -32 10 -17 25 -11
25 9 0 11 5 23 10 26 5 3 10 17 10 30 0 23 24 40 41 29 5 -3 9 2 9 11 0 9 4
14 9 11 8 -5 6 47 -4 72 -7 20 22 26 40 8 11 -11 13 -20 6 -33 -5 -10 -17 -37
-26 -60 -19 -46 -24 -50 -43 -31 -9 9 -12 7 -12 -10 0 -11 -13 -44 -30 -72
-37 -62 -38 -71 -5 -40 14 13 25 18 25 12 0 -7 -4 -12 -9 -12 -8 0 -27 -75
-23 -92 1 -3 -5 -12 -13 -18 -12 -10 -15 -9 -15 8 0 12 5 24 10 27 17 11 11
35 -9 35 -25 0 -32 31 -11 48 11 10 12 15 3 18 -7 3 -13 15 -13 27 0 16 -3 18
-9 8 -5 -7 -6 -22 -4 -32 4 -15 2 -18 -13 -12 -16 6 -17 4 -7 -8 9 -11 10 -25
3 -47 -5 -18 -5 -30 0 -27 4 3 15 2 24 -1 13 -5 13 -10 4 -27 -6 -12 -12 -32
-14 -44 -2 -21 -1 -21 21 -7 21 14 23 13 39 -10 9 -14 16 -32 16 -41 0 -8 4
-15 10 -15 5 0 7 7 4 15 -4 11 -2 13 9 10 9 -4 17 2 22 17 l8 23 4 -24 c3 -13
-1 -27 -9 -32 -7 -5 -9 -9 -5 -9 4 0 3 -9 -3 -20 -8 -14 -8 -20 0 -20 6 0 15
11 20 25 12 33 19 32 31 -5 10 -28 24 -35 58 -31 7 2 10 -3 6 -9 -4 -6 -15 -8
-25 -5 -22 7 -33 -26 -20 -61 9 -24 -2 -34 -15 -14 -3 6 -12 10 -18 9 -9 0 -9
-2 1 -6 6 -2 12 -9 12 -14 0 -6 -5 -7 -11 -3 -7 4 -10 -1 -7 -12 2 -11 9 -19
16 -19 15 0 32 -23 32 -44 0 -9 -7 -11 -23 -8 -29 8 -56 -8 -40 -24 8 -8 17
-8 33 1 21 11 22 10 18 -14 -3 -14 -1 -27 5 -29 5 -1 10 -15 10 -29 -1 -18 4
-25 13 -21 16 6 19 -8 4 -23 -15 -15 -1 -54 17 -47 12 5 14 1 8 -17 -5 -15 -4
-20 4 -16 6 4 11 2 11 -3 0 -14 -27 -14 -35 -1 -5 8 -37 2 -55 -11 -3 -2 -13
3 -22 11 -15 14 -14 18 9 48 21 28 24 40 18 77 -3 25 -10 47 -16 50 -11 8 -11
-2 1 -44 9 -31 4 -48 -27 -90 -5 -8 -43 32 -43 46 0 7 -5 13 -10 13 -15 0 37
-94 73 -132 9 -10 17 -24 17 -31 0 -8 16 -30 35 -50 44 -45 47 -70 8 -61 -16
4 -35 10 -43 14 -17 9 -46 -15 -30 -25 6 -3 10 -3 10 1 0 4 9 -1 20 -11 17
-16 20 -16 20 -2 0 12 9 15 43 14 48 -2 64 -13 62 -41 -2 -20 -11 -27 -50 -42
-19 -7 -19 -8 3 -11 12 -3 20 -9 16 -14 -3 -5 -10 -7 -15 -4 -5 4 -9 1 -9 -5
0 -7 -8 -9 -20 -5 -23 7 -28 -10 -5 -19 8 -3 15 -12 15 -21 0 -8 4 -15 9 -15
5 0 9 -21 9 -46 0 -30 6 -52 17 -63 15 -15 16 -14 13 18 -3 31 1 37 32 53 19
11 43 32 52 48 9 17 22 30 27 30 6 0 -1 -16 -14 -37 -16 -22 -23 -44 -19 -55
3 -10 -1 -29 -9 -41 -19 -29 -31 -81 -17 -72 5 3 10 15 10 26 0 10 3 19 8 19
7 0 34 54 46 93 3 10 10 16 15 13 5 -3 12 5 15 19 6 22 -2 33 -48 76 -68 63
-100 123 -90 174 8 42 18 49 102 65 34 7 65 17 68 21 3 5 0 9 -7 9 -16 0 -49
39 -61 72 -6 16 -15 25 -22 22 -8 -3 -16 3 -20 12 -9 25 4 104 17 101 6 -1 15
24 20 58 5 33 16 68 24 78 10 10 12 17 5 17 -7 0 -12 5 -12 11 0 5 4 8 9 5 13
-8 32 18 34 46 0 13 6 27 12 31 6 5 3 7 -7 3 -24 -7 -25 29 -1 38 18 7 35 -12
26 -29 -4 -5 -2 -6 3 -2 5 5 9 23 9 40 0 18 5 34 10 36 17 8 32 88 27 147 -4
50 -3 56 12 51 16 -6 23 7 8 17 -13 8 -14 76 -1 76 7 0 9 -10 7 -25 -4 -18 -1
-25 10 -25 8 0 12 3 9 7 -4 3 -2 12 4 19 7 9 7 19 -1 34 -12 23 -7 50 9 50 5
0 12 -8 14 -17 3 -11 5 -8 6 9 1 34 21 78 35 78 6 0 4 5 -5 10 -16 10 -17 20
-4 83 13 64 32 37 27 -38 -2 -19 -1 -19 9 -2 6 11 8 32 5 48 -3 16 -1 29 4 29
6 0 10 7 10 15 0 8 -4 15 -10 15 -5 0 -10 -4 -10 -10 0 -5 -4 -10 -9 -10 -13
0 -18 70 -7 97 5 12 6 29 2 39 -6 15 -9 14 -26 -6 -21 -24 -27 -60 -10 -60 17
0 11 -25 -11 -49 -20 -21 -23 -22 -31 -6 -6 9 -8 25 -5 35 3 13 -1 21 -14 25
-10 4 -19 14 -19 23 1 16 2 16 14 0 15 -20 36 -6 36 23 0 10 5 21 11 24 6 4 8
13 5 20 -6 17 13 35 30 28 8 -3 14 -11 14 -19 0 -8 5 -14 10 -14 9 0 8 20 -7
73 -6 24 -19 21 -27 -5 -5 -18 -8 -20 -15 -9 -13 20 8 49 31 43 14 -3 17 0 12
14 -4 11 -11 24 -16 31 -12 15 21 75 37 69 6 -2 11 5 11 15 0 10 -6 21 -13 23
-7 3 -13 -1 -13 -9 0 -8 -7 -15 -15 -15 -8 0 -15 -6 -15 -14 0 -8 -9 -18 -20
-21 -12 -4 -29 -16 -40 -28 -11 -11 -22 -18 -25 -15 -3 3 0 12 8 19 7 8 21 26
31 42 10 15 22 27 27 27 12 0 70 52 65 57 -2 3 -16 -3 -30 -13 -30 -19 -31
-19 -40 16 -6 21 -5 22 4 7 10 -16 14 -15 56 13 49 34 56 50 22 50 -16 0 -19
-3 -10 -8 9 -6 6 -12 -13 -22 -14 -7 -28 -10 -32 -6 -4 4 3 9 15 13 12 3 19
10 15 16 -3 5 2 16 12 23 9 7 15 18 13 26 -3 7 12 20 32 30 32 16 47 35 69 83
2 6 -3 4 -11 -2 -8 -7 -18 -10 -21 -6 -4 3 -7 -5 -7 -19 0 -15 -7 -28 -17 -32
-10 -3 -24 -9 -32 -12 -10 -5 -12 0 -7 24 6 25 4 30 -14 35 -27 7 -25 54 1 49
9 -1 19 5 23 13 3 9 11 13 16 10 8 -5 7 -12 -2 -23 -11 -13 -11 -14 2 -10 8 3
15 15 14 27 0 14 4 20 12 17 16 -6 25 21 19 57 -5 23 -2 27 19 27 27 0 52 32
40 51 -4 6 -11 1 -18 -13 -18 -35 -45 -35 -57 1 -6 17 -16 31 -22 31 -15 0 14
20 29 20 6 0 10 -14 9 -32 l-2 -31 18 21 c11 14 28 22 48 22 31 0 42 -14 19
-23 -10 -4 -10 -6 0 -6 8 -1 16 8 19 19 4 15 11 19 25 14 14 -4 21 0 25 15 4
16 9 18 23 11 9 -5 20 -7 24 -3 7 7 -40 33 -60 33 -8 0 -14 7 -14 16 0 8 -7
22 -15 31 -9 8 -13 18 -10 22 4 3 14 -4 23 -17 14 -17 20 -20 29 -11 9 9 15 6
24 -14 7 -15 16 -27 21 -27 5 0 4 9 -2 21 -11 19 -10 20 9 10 17 -10 20 -9 15
4 -4 8 -1 15 6 15 7 0 9 8 5 23 -6 21 -6 21 14 -3 17 -21 21 -22 21 -7 0 9 -5
26 -12 36 -9 15 -9 26 0 46 12 27 13 27 33 9 11 -9 16 -20 12 -23 -13 -9 -15
-39 -3 -46 5 -3 10 -15 10 -25 0 -32 17 -31 32 1 l15 30 7 -50 c4 -28 11 -53
17 -57 14 -8 29 14 29 43 0 15 5 21 14 17 17 -6 5 -72 -16 -85 -10 -7 -10 -9
2 -9 9 0 23 12 32 28 10 15 18 21 18 14 0 -16 29 -47 36 -39 3 3 -4 19 -16 35
-12 17 -20 36 -18 43 6 19 50 -62 45 -83 -3 -10 -1 -16 3 -13 5 3 13 -2 18
-11 15 -26 40 -11 35 20 -4 19 -1 26 11 26 17 0 18 10 8 47 -5 16 -11 20 -21
13 -13 -7 -13 -11 -1 -25 12 -14 12 -18 -1 -26 -40 -25 -67 13 -29 43 18 15
20 21 10 33 -7 8 -16 12 -21 9 -5 -3 -9 4 -9 15 0 12 7 21 15 21 16 0 38 -34
28 -44 -3 -3 -2 -6 3 -6 5 0 15 9 22 20 7 11 8 20 3 20 -5 0 -20 14 -32 32
-13 17 -17 28 -11 24 7 -4 19 -3 27 4 10 9 16 7 24 -7 14 -24 14 2 0 29 -10
19 -9 20 19 16 22 -3 32 0 36 11 3 9 9 22 12 30 5 11 2 12 -12 6 -28 -11 -65
-15 -59 -5 3 4 -2 13 -10 20 -15 12 -14 53 1 129 6 30 4 33 -10 28 -13 -5 -16
-2 -14 11 2 9 10 16 17 14 7 -1 9 2 6 9 -4 6 -16 8 -27 6 -15 -4 -18 -1 -13
14 4 12 1 21 -9 25 -9 3 -13 10 -10 15 3 5 8 7 12 5 4 -2 8 7 8 20 1 13 -2 21
-7 18 -5 -3 -9 -12 -9 -20 0 -15 -16 -20 -22 -6 -2 4 2 45 8 92 10 67 12 74
11 33 0 -29 2 -56 6 -59 4 -4 7 2 7 14 0 34 11 52 31 52 24 0 24 -9 2 -26 -11
-8 -13 -13 -5 -14 6 0 12 -7 12 -15 0 -7 -6 -18 -12 -22 -18 -11 -19 -96 -2
-89 25 9 59 -76 43 -106 -7 -12 -6 -18 2 -18 7 0 9 -9 5 -26 -5 -17 -3 -23 4
-19 5 3 10 14 10 23 0 9 4 23 9 31 8 12 12 12 25 -2 17 -16 22 -32 8 -23 -7 4
-38 -46 -60 -96 -2 -5 5 -8 16 -8 15 0 19 5 15 19 -3 12 4 29 16 42 20 21 21
22 21 3 1 -25 23 -54 42 -54 22 0 31 42 13 56 -21 16 -18 26 5 19 11 -4 20 -2
20 4 0 6 -7 11 -15 11 -9 0 -23 16 -32 35 -13 27 -21 34 -35 29 -15 -4 -18 0
-16 23 2 35 -18 97 -38 113 -11 10 -14 9 -14 -6 0 -11 -5 -26 -11 -34 -7 -11
-9 -3 -5 30 3 25 5 52 5 62 1 20 41 13 41 -8 0 -8 5 -14 10 -14 16 0 12 26 -7
41 -9 8 -18 13 -20 11 -3 -2 -7 -1 -11 2 -3 3 0 6 7 6 8 0 11 8 9 18 -3 12 0
19 9 19 9 0 13 -7 9 -20 -4 -17 13 -47 27 -47 3 0 7 15 10 33 11 64 25 112 26
90 0 -12 6 -25 12 -28 14 -9 27 4 13 13 -23 16 -68 142 -45 128 6 -4 11 -18
11 -31 0 -13 5 -27 10 -30 6 -3 10 1 10 9 0 9 7 16 15 16 8 0 15 5 15 10 0 7
-7 7 -21 -1 -20 -10 -21 -9 -14 23 10 44 12 45 34 19 14 -16 21 -18 24 -9 2 7
2 4 0 -7 -2 -11 -6 -50 -10 -87 -3 -38 -10 -68 -14 -68 -5 0 -9 -4 -9 -10 0
-5 7 -10 16 -10 13 0 14 -11 9 -77 -4 -47 -3 -89 4 -105 8 -22 7 -29 -12 -42
l-22 -16 25 2 c16 2 26 11 31 28 4 14 8 22 9 18 3 -9 3 -10 14 -57 9 -39 56
-110 72 -111 6 0 10 -10 10 -22 -1 -14 6 -24 18 -26 20 -4 20 3 -5 65 -15 38
-9 48 26 39 24 -6 36 -36 15 -36 -5 0 -10 -9 -10 -21 0 -19 1 -20 18 -3 20 20
25 59 11 86 -10 19 -59 26 -59 7 0 -5 -4 -7 -10 -4 -5 3 -10 1 -10 -6 0 -8 -3
-9 -13 0 -8 6 -16 9 -19 6 -2 -3 -12 14 -22 36 -21 46 -16 57 18 41 36 -16 41
10 8 41 -40 38 -51 53 -58 81 -5 20 -2 26 10 26 9 0 16 -6 16 -13 0 -8 9 -24
20 -37 11 -12 17 -27 14 -32 -3 -5 5 -17 17 -27 15 -12 22 -28 21 -48 0 -26 3
-31 23 -29 22 1 23 2 10 23 -8 12 -15 29 -15 36 0 8 -7 20 -15 27 -20 16 -19
34 0 26 9 -3 18 1 22 11 6 14 7 14 19 -1 11 -16 13 -16 19 3 3 12 11 19 16 16
5 -4 9 -1 9 4 0 27 17 6 30 -36 8 -28 16 -41 18 -30 2 9 10 17 18 17 8 0 14 7
14 16 0 13 5 11 23 -8 17 -18 23 -38 24 -74 1 -38 0 -42 -5 -19 -4 17 -12 30
-17 30 -6 0 -9 8 -8 18 2 9 -2 17 -7 17 -6 0 -9 -6 -8 -12 2 -7 -5 -12 -14
-10 -11 2 -18 -3 -18 -12 0 -8 -5 -16 -10 -18 -7 -2 -5 -16 6 -36 9 -18 14
-42 11 -52 -3 -10 1 -48 9 -83 7 -35 12 -82 11 -105 0 -23 2 -44 5 -48 14 -14
28 9 28 47 0 21 5 39 10 39 19 0 10 34 -17 62 l-27 28 32 12 c22 9 32 19 31
33 0 20 0 20 -9 0 -5 -11 -9 -15 -9 -9 -1 7 6 25 14 40 l15 29 1 -25 c1 -14 3
-34 5 -45 16 -101 19 -133 13 -129 -7 4 -5 -24 6 -98 3 -21 0 -28 -12 -28 -13
0 -14 -3 -5 -12 7 -7 12 -36 12 -65 0 -40 4 -55 16 -60 9 -3 20 0 24 7 4 7 6
-9 4 -36 l-4 -49 17 35 c23 48 31 80 32 133 1 15 6 27 12 27 9 0 10 -33 6
-120 -3 -71 -1 -118 4 -114 5 3 9 12 9 20 0 8 5 12 10 9 6 -3 10 5 10 19 0 14
5 28 10 31 6 4 8 10 5 15 -3 5 1 12 8 17 18 10 32 53 18 53 -6 0 -11 7 -11 15
0 8 7 15 15 15 8 0 15 -8 15 -17 0 -12 8 -7 29 17 23 27 32 32 42 23 15 -15 5
-41 -21 -51 -19 -7 -18 -10 15 -47 19 -22 35 -35 35 -28 0 6 -7 19 -16 27 -10
11 -12 21 -6 32 8 14 10 13 16 -9 3 -13 13 -27 21 -31 13 -5 16 2 14 42 -1 26
3 64 10 85 7 21 10 49 7 63 -6 24 7 33 19 14 5 -8 11 -8 20 0 13 11 37 -8 34
-26 -1 -5 -1 -21 0 -36 1 -20 5 -26 16 -22 9 4 15 0 15 -9 0 -8 -6 -18 -12
-20 -9 -4 -9 -6 -1 -6 6 -1 17 -17 23 -36 6 -19 16 -35 21 -35 5 0 9 -6 9 -14
0 -8 4 -17 9 -20 4 -3 6 7 4 22 -4 25 -3 26 10 9 11 -13 16 -15 20 -5 7 18 61
-42 65 -71 1 -13 9 -32 18 -44 16 -22 16 -22 11 7 l-5 30 17 -22 c12 -17 19
-20 28 -11 8 8 4 28 -18 76 -33 75 -33 73 -16 73 7 0 18 9 24 19 10 15 9 22
-2 31 -8 7 -15 20 -15 29 1 14 2 14 14 -1 7 -10 16 -18 20 -18 9 0 7 34 -2 46
-11 12 11 55 24 46 5 -4 22 -26 37 -49 15 -24 30 -43 33 -43 3 0 3 4 -1 9 -3
5 -1 12 5 16 7 4 7 13 -1 26 -16 30 -4 49 31 49 17 0 29 -4 25 -9 -3 -5 5 -11
17 -13 15 -2 24 -13 30 -36 6 -24 13 -32 24 -28 9 3 14 -1 14 -13 0 -11 5 -21
11 -23 6 -2 12 -14 13 -27 0 -13 12 -30 26 -39 14 -9 22 -12 17 -7 -4 4 0 16
9 26 15 17 14 20 -6 48 -12 17 -26 31 -31 31 -5 0 -9 9 -9 20 0 11 5 20 10 20
6 0 10 -8 10 -18 0 -23 31 -53 58 -55 11 0 18 -6 15 -13 -8 -22 16 -25 38 -5
20 18 20 21 5 36 -9 9 -16 11 -16 5 0 -21 -40 10 -57 44 -11 24 -21 32 -33 29
-12 -3 -20 2 -24 15 -4 11 -15 22 -25 25 -13 3 -20 17 -24 48 -3 25 -15 64
-26 88 -22 50 -12 84 23 79 24 -4 29 -18 15 -38 -8 -11 -12 -12 -16 -2 -2 6
-9 12 -14 12 -6 0 -5 -8 1 -20 6 -11 14 -19 18 -19 21 4 32 -3 32 -20 0 -10 8
-25 17 -32 15 -13 16 -12 9 11 -19 60 -18 98 3 119 11 11 18 27 15 36 -7 18 0
19 27 5 10 -6 19 -17 19 -24 0 -8 7 -16 15 -20 8 -3 15 -15 15 -26 0 -11 9
-29 19 -39 10 -10 22 -34 26 -52 9 -48 34 -99 51 -106 8 -3 12 -9 9 -13 -5 -9
6 -41 34 -97 15 -32 31 -43 31 -23 0 7 6 7 20 0 11 -6 20 -17 20 -25 0 -9 6
-12 15 -9 8 4 15 1 15 -6 0 -8 -9 -11 -25 -8 -37 8 -30 -9 10 -23 19 -7 37
-20 40 -28 6 -19 85 -105 85 -94 0 5 -7 19 -16 32 -11 15 -15 35 -11 60 4 35
3 38 -18 35 -17 -1 -22 2 -18 12 3 8 9 14 14 14 5 0 9 5 9 10 0 6 -11 10 -24
10 -19 0 -26 8 -36 44 -6 24 -10 52 -7 62 3 17 5 16 15 -6 6 -14 11 -19 11
-11 1 7 7 11 15 8 8 -3 17 1 20 9 7 17 26 19 26 2 0 -7 15 -20 33 -29 17 -9
31 -22 29 -28 -1 -6 4 -11 11 -11 22 0 60 -47 51 -62 -16 -25 -12 -38 11 -38
13 0 31 -10 39 -22 13 -18 16 -19 16 -5 0 9 7 17 16 17 13 0 14 3 5 13 -15 19
24 56 40 40 6 -6 18 -9 27 -5 11 4 14 1 9 -11 -5 -12 -1 -17 13 -17 11 0 20
-4 20 -10 0 -5 7 -10 15 -10 9 0 27 -12 40 -26 21 -23 24 -24 33 -8 9 16 10
16 21 -3 7 -15 17 -20 31 -16 11 3 31 -2 44 -11 18 -12 26 -12 29 -3 4 7 6 8
6 1 1 -6 11 -9 24 -7 17 3 31 -4 53 -29 17 -19 35 -33 41 -31 22 8 63 -17 63
-37 0 -11 6 -20 14 -20 7 0 25 -9 40 -21 28 -22 55 -17 35 7 -21 25 -3 25 35
-1 20 -14 39 -25 41 -25 10 0 4 19 -11 34 -14 15 -14 16 0 16 22 0 20 19 -1
26 -55 18 -97 47 -85 58 7 7 -63 76 -77 76 -4 0 -16 9 -27 21 -15 17 -16 22
-4 29 16 10 55 -10 77 -37 7 -9 21 -13 32 -10 12 3 29 -3 42 -14 12 -11 25
-17 28 -14 3 4 -1 10 -8 14 -9 6 -10 11 -2 15 5 4 19 -1 30 -11 38 -34 66 -54
72 -51 4 2 16 -5 27 -15 23 -21 38 -7 37 38 0 22 -5 30 -20 32 -11 2 -14 0 -7
-3 21 -10 13 -31 -12 -31 -22 0 -23 2 -15 31 5 17 13 32 18 34 4 1 16 8 25 15
15 11 11 12 -24 9 l-41 -4 16 38 c19 47 15 43 48 37 25 -5 39 -23 17 -23 -5 0
-10 -5 -10 -11 0 -6 9 -9 19 -6 22 5 37 -19 18 -27 -7 -2 -2 -5 11 -5 12 -1
22 3 22 8 0 5 23 11 50 15 28 4 50 11 50 16 0 6 11 10 25 10 16 0 25 -6 25
-15 0 -8 5 -15 10 -15 6 0 20 -11 32 -25 12 -14 34 -32 49 -39 27 -13 27 -13
17 10 -10 22 -21 29 -41 25 -14 -3 3 18 25 30 15 8 19 8 14 0 -4 -6 0 -11 11
-11 34 0 88 -35 90 -58 3 -27 -4 -28 -31 -4 -12 10 -9 3 8 -21 22 -29 32 -35
42 -26 8 6 22 7 36 3 13 -4 28 -7 35 -6 6 2 19 -10 28 -25 21 -35 74 -70 98
-65 15 3 11 8 -15 22 -18 9 -33 24 -33 31 0 8 -4 20 -8 27 -14 21 48 14 69 -9
10 -12 26 -18 36 -15 11 2 29 -5 43 -20 13 -13 29 -24 35 -24 5 0 10 -7 10
-16 0 -11 6 -15 19 -11 13 3 28 -5 45 -24 15 -17 32 -26 40 -23 10 4 25 -9 43
-36 24 -35 66 -90 116 -150 6 -8 12 -21 13 -30 4 -53 4 -55 13 -41 5 8 7 21 4
30 -3 12 0 11 11 -3 13 -16 20 -17 39 -9 19 9 26 7 39 -9 9 -11 13 -28 11 -40
-5 -15 -8 -17 -14 -6 -6 8 -9 2 -9 -20 0 -19 8 -46 18 -60 26 -38 34 -61 37
-105 2 -30 0 -37 -12 -33 -8 3 -19 6 -24 6 -5 0 -9 11 -9 25 0 14 -11 34 -24
46 -17 15 -23 29 -20 45 2 13 0 24 -6 24 -5 0 -10 -9 -10 -20 0 -23 20 -70 30
-70 4 0 10 -11 12 -25 4 -17 1 -25 -8 -25 -14 0 -8 -30 8 -41 5 -3 17 -53 28
-110 18 -103 38 -164 85 -264 13 -27 28 -68 33 -90 6 -22 27 -94 48 -160 43
-138 54 -249 35 -356 -20 -110 -9 -106 -212 -85 -96 9 -208 22 -249 28 -86 12
-489 14 -630 3 -126 -10 -142 -11 -230 -25 -90 -14 -90 -14 -115 -5 -14 5 -16
4 -6 -3 19 -14 10 -17 -129 -47 -154 -34 -297 -68 -370 -89 -123 -36 -533 -88
-559 -71 -4 2 -50 11 -102 19 -52 8 -128 27 -169 42 -41 14 -93 28 -115 31
-22 2 -44 9 -50 16 -5 7 -35 13 -65 15 -30 2 -72 7 -93 13 -21 5 -69 11 -108
11 -38 1 -69 6 -69 11 0 5 -22 6 -50 2 -33 -4 -55 -3 -64 4 -8 7 -23 8 -37 3
-13 -4 -53 -7 -89 -6 -36 1 -183 4 -328 7 -224 6 -501 -3 -627 -19 -67 -8
-387 -65 -482 -85 l-103 -22 2 -214 c1 -117 5 -217 8 -221 3 -5 20 -14 38 -21
47 -20 86 -69 117 -152 38 -101 108 -243 141 -286 59 -77 157 -118 384 -158
360 -63 752 -57 1145 16 239 44 329 89 392 197 14 24 30 39 36 35 6 -4 8 0 4
10 -3 10 -2 17 3 17 6 0 10 6 10 14 0 8 10 36 21 63 12 26 23 57 24 67 1 11 7
22 14 24 6 2 9 8 6 13 -3 5 1 30 10 56 81 243 124 278 335 278 180 0 240 -38
246 -152 3 -55 10 -73 73 -184 17 -31 37 -77 45 -101 18 -62 89 -163 138 -199
161 -116 734 -151 1198 -73 275 46 446 106 506 177 15 17 49 78 76 135 35 73
53 102 66 102 11 0 25 14 36 36 21 45 14 58 -9 15 -16 -32 -35 -41 -35 -17 0
7 7 19 15 26 8 7 15 18 15 26 0 19 21 29 30 13 7 -10 12 -10 23 -1 10 9 12 24
7 56 -5 36 -3 47 17 70 22 26 23 32 23 235 l0 208 -26 12 -26 11 20 33 c10 17
24 31 31 30 6 -2 11 2 11 7 0 6 9 23 20 38 13 18 24 57 31 112 6 47 20 106 31
131 11 25 19 57 18 70 -1 13 -1 26 0 29 5 9 10 64 10 98 -1 17 3 32 8 32 5 0
9 33 9 73 0 45 6 88 17 116 19 49 24 229 8 272 -5 13 -6 33 -2 44 4 11 2 35
-3 55 -6 19 -11 65 -11 103 0 37 -3 67 -6 67 -3 0 -6 18 -7 40 -1 21 -8 50
-14 62 -7 13 -13 28 -14 35 0 7 -9 19 -20 28 -18 15 -18 16 -1 11 14 -5 17 -3
11 11 -19 47 -26 89 -27 161 -1 114 -18 313 -30 345 -6 15 -14 27 -19 27 -5 0
-9 7 -9 15 0 8 4 15 10 15 6 0 6 9 0 26 -13 33 -13 64 0 64 6 0 10 -7 10 -15
0 -8 5 -15 11 -15 6 0 8 7 5 16 -3 9 -6 20 -6 26 0 6 -6 8 -14 5 -10 -4 -15 9
-20 53 -7 59 -19 82 -30 58 -3 -7 -4 -4 -1 7 2 11 -2 31 -11 45 -14 24 -14 24
-8 -15 3 -22 8 -48 11 -57 2 -10 1 -18 -4 -18 -10 0 -35 16 -33 21 1 2 -1 15
-4 29 -3 14 -7 42 -9 63 -2 21 -9 43 -15 49 -17 17 -15 41 2 35 9 -4 16 3 20
16 l5 21 24 -22 c13 -12 31 -22 40 -22 20 0 22 -11 5 -28 -14 -14 -42 -16 -33
-3 3 6 -4 15 -15 21 -19 10 -20 10 -11 -7 23 -39 43 -58 48 -45 3 7 11 18 18
25 7 7 12 27 11 44 0 17 -3 29 -5 27 -9 -9 -31 35 -25 50 4 9 1 16 -6 16 -7 0
-10 6 -7 14 3 8 -1 20 -9 27 -8 7 -22 28 -29 46 -8 19 -33 52 -55 74 -22 22
-40 46 -40 54 0 19 -40 56 -53 48 -5 -3 0 -13 12 -22 l21 -16 -24 0 c-13 0
-22 3 -20 7 2 4 0 9 -6 13 -5 3 -10 15 -10 27 0 15 -5 19 -20 15 -11 -3 -21 0
-21 6 -6 51 -6 63 -2 71 3 4 15 -11 27 -35 12 -23 27 -44 34 -47 18 -6 11 20
-10 39 -10 9 -18 26 -18 38 0 11 -4 21 -8 21 -8 0 -72 85 -72 96 0 3 5 2 12
-2 7 -4 8 -3 4 4 -4 7 -11 12 -16 12 -4 0 -23 15 -42 33 -70 66 -119 104 -124
96 -3 -5 -25 3 -50 17 -43 25 -70 26 -46 2 7 -7 12 -26 11 -43 l-1 -30 -10 35
c-5 19 -10 44 -12 55 -1 11 -11 24 -22 29 -10 5 -34 29 -52 53 -24 32 -39 43
-52 40 -12 -3 -21 1 -23 12 -3 11 -5 9 -6 -6 0 -12 4 -25 9 -28 6 -3 10 -19
10 -34 0 -16 10 -37 25 -51 14 -13 25 -29 25 -37 0 -7 7 -13 15 -13 8 0 15 -7
15 -15 0 -22 -40 -19 -41 3 0 9 -18 32 -40 51 -36 30 -39 31 -39 12 0 -11 11
-28 25 -37 14 -9 25 -23 25 -30 0 -8 11 -20 25 -26 26 -11 34 -28 14 -28 -6 0
-9 -7 -5 -15 3 -9 0 -15 -8 -15 -22 0 -67 60 -71 95 -3 29 -18 55 -32 55 -9 0
-13 6 -9 15 3 8 1 15 -4 15 -14 0 -12 -22 4 -43 14 -18 11 -57 -4 -57 -15 0
-50 58 -44 73 3 8 0 18 -5 22 -6 3 -8 12 -5 18 4 7 4 9 -1 5 -4 -4 -16 8 -26
27 -21 38 -25 60 -9 50 6 -3 10 1 10 9 0 9 9 16 20 16 13 0 20 -7 20 -20 0
-14 -7 -20 -22 -20 -22 -1 -22 -1 -4 -12 15 -9 22 -7 33 8 10 14 13 15 13 2 0
-23 38 -54 51 -41 8 8 7 13 -2 18 -8 6 -10 4 -4 -5 5 -8 3 -11 -6 -8 -8 3 -13
11 -11 18 2 7 -6 19 -16 26 -11 7 -22 24 -26 37 -3 14 -13 23 -27 24 -12 1
-31 11 -43 22 -12 12 -31 21 -42 21 -11 0 -30 10 -43 21 -19 18 -27 20 -47 10
-28 -12 -29 -19 -9 -45 19 -25 19 -40 1 -33 -11 4 -13 1 -9 -10 5 -13 1 -15
-20 -9 -25 6 -26 5 -17 -20 13 -32 13 -57 0 -49 -5 3 -7 12 -3 20 3 9 -1 15
-8 15 -8 1 -25 10 -38 20 -18 16 -21 23 -12 34 8 10 9 16 1 21 -5 3 -10 -1
-10 -9 0 -8 -4 -18 -10 -21 -6 -4 -10 8 -10 29 l0 34 38 -18 c20 -10 39 -17
41 -15 8 9 11 74 3 79 -12 7 -52 -4 -52 -15 0 -5 12 -9 28 -10 23 0 24 -1 7
-8 -23 -9 -55 -3 -55 10 0 5 -6 9 -14 9 -7 0 -16 9 -19 20 -3 13 0 20 10 20 8
0 11 -4 8 -10 -3 -5 -1 -10 5 -10 26 0 1 25 -28 28 -24 2 -32 8 -32 23 0 13
-7 19 -21 19 -11 0 -30 5 -41 11 -19 10 -20 9 -16 -9 6 -20 5 -20 -19 -5 -13
9 -22 22 -19 29 3 8 0 11 -8 8 -7 -3 -16 2 -20 12 -5 12 -14 15 -36 11 -16 -4
-32 -2 -36 4 -3 6 -14 9 -24 6 -12 -3 -17 0 -15 12 1 9 8 15 15 13 16 -3 8 20
-9 26 -7 2 -15 -5 -18 -17 -5 -20 -6 -20 -19 -4 -16 22 -18 43 -3 43 5 0 7 -4
4 -10 -3 -5 1 -10 9 -10 9 0 16 5 16 11 0 5 5 7 10 4 23 -14 8 5 -18 24 -31
21 -86 36 -77 20 4 -5 11 -7 16 -4 5 4 9 0 9 -8 0 -8 -9 -17 -20 -20 -11 -3
-18 -1 -14 4 3 5 0 9 -6 9 -7 0 -10 7 -6 15 7 18 -24 21 -41 4 -15 -15 -5 -39
12 -33 7 3 16 1 20 -5 3 -6 15 -11 26 -11 21 0 23 -8 10 -29 -5 -8 -16 -11
-25 -8 -12 5 -16 1 -16 -15 0 -17 -3 -18 -15 -8 -8 7 -13 16 -10 20 3 4 -6 8
-19 8 -23 0 -24 -1 -9 -35 16 -40 10 -58 -8 -20 -6 14 -20 28 -31 30 -11 3
-22 15 -25 26 -3 12 -9 21 -14 21 -12 0 -11 -17 1 -25 6 -3 10 -11 10 -17 0
-7 -6 -6 -15 2 -8 7 -15 22 -15 33 0 11 -7 28 -16 38 -17 19 -11 39 12 39 8 0
14 4 14 9 0 10 -65 26 -93 23 -10 -1 -15 3 -12 8 3 6 -3 10 -13 10 -11 0 -22
-7 -26 -15 -5 -15 3 -18 54 -18 15 0 18 -2 8 -4 -10 -3 -18 -11 -18 -19 0 -8
-4 -14 -10 -14 -5 0 -10 4 -10 9 0 5 -10 11 -21 14 -15 4 -20 11 -15 22 4 11
-2 19 -17 24 -33 13 -43 0 -18 -21 27 -21 14 -25 -15 -3 -23 17 -45 19 -41 4
2 -12 -49 -47 -72 -48 -10 -1 -11 2 -3 12 17 20 3 60 -19 54 -11 -3 -17 -1
-14 3 3 5 -5 14 -17 21 -30 15 -58 45 -51 53 11 11 -17 6 -38 -6 -17 -10 -23
-10 -26 -1 -2 7 -19 15 -38 19 -26 5 -32 10 -28 25 5 19 23 27 23 10 0 -5 7
-11 15 -15 8 -3 15 -1 15 5 0 6 -14 16 -30 22 -17 7 -28 17 -26 24 3 7 -1 10
-9 6 -11 -3 -12 -10 -6 -22 7 -12 4 -21 -15 -36 l-25 -20 33 -1 c17 -1 34 -6
36 -13 2 -6 10 -11 18 -11 8 0 14 -5 14 -11 0 -6 7 -9 15 -5 8 3 15 1 15 -4 0
-6 9 -10 20 -10 11 0 20 -7 20 -16 0 -8 4 -12 10 -9 5 3 19 1 31 -5 22 -12 63
-50 54 -50 -3 0 -1 -9 5 -20 11 -20 68 -55 77 -47 2 3 29 -4 58 -14 30 -10 62
-19 72 -19 10 0 25 -5 33 -10 10 -8 -5 -9 -50 -4 l-65 7 19 -22 c11 -11 14
-21 8 -21 -7 0 -12 -7 -12 -15 0 -18 -28 -9 -53 17 -10 10 -22 16 -28 13 -5
-4 -9 5 -9 19 0 17 -6 26 -15 26 -8 0 -23 4 -33 9 -9 5 -40 13 -68 18 -40 7
-53 6 -60 -5 -7 -10 -15 -11 -36 -3 -22 8 -26 8 -21 -4 3 -9 -1 -15 -8 -15 -8
0 2 -8 21 -17 19 -10 53 -30 74 -45 21 -15 44 -28 51 -28 7 0 20 -9 30 -20 10
-11 26 -20 36 -20 10 0 21 -5 24 -10 4 -6 10 -8 15 -5 12 7 40 -5 40 -17 0 -6
8 -17 18 -24 16 -12 16 -13 0 -14 -9 0 -20 5 -23 10 -3 6 -14 10 -24 10 -10 0
-26 9 -36 20 -10 11 -26 20 -36 20 -10 0 -20 4 -23 9 -3 5 -18 12 -33 16 -16
3 -38 16 -50 27 -12 11 -26 18 -30 15 -5 -3 -16 3 -23 14 -8 10 -20 19 -28 19
-18 0 -83 45 -76 53 3 3 17 2 30 -3 19 -7 24 -6 24 5 0 8 -4 15 -10 15 -5 0
-10 8 -10 17 0 9 -3 13 -7 10 -3 -4 -13 -1 -21 6 -13 10 -15 9 -9 -5 8 -22 3
-23 -17 -2 -9 8 -24 14 -34 12 -13 -3 -10 -7 13 -19 20 -9 30 -22 31 -38 1
-14 10 -30 20 -38 26 -19 8 -16 -22 3 -18 13 -22 20 -14 30 9 9 6 15 -9 23
-11 6 -25 11 -31 11 -6 0 -19 7 -27 16 -12 11 -18 12 -23 3 -6 -9 -20 -7 -56
7 -27 10 -53 18 -57 16 -4 -1 -17 3 -29 9 -15 8 -17 13 -8 19 7 5 0 10 -22 14
-39 7 -68 43 -46 57 23 14 -16 43 -57 42 -19 -1 -38 3 -41 9 -8 12 35 58 55
59 10 0 6 4 -8 10 -16 6 -28 6 -36 -1 -9 -8 -15 -8 -20 0 -10 16 -39 12 -53
-7z m-249 -74 c3 -12 3 -19 0 -16 -3 3 -15 -3 -26 -14 -16 -15 -18 -22 -9 -31
22 -22 14 -37 -15 -29 -16 5 -44 7 -63 6 -19 -1 -39 3 -43 9 -6 7 -7 4 -3 -7
3 -11 0 -20 -9 -23 -8 -4 -15 -17 -15 -31 0 -13 -4 -21 -10 -18 -5 3 -10 1
-10 -4 0 -6 9 -11 20 -11 11 0 20 -4 20 -10 0 -5 10 -11 23 -11 20 -1 20 -2 2
-6 -11 -3 -26 -14 -33 -24 -13 -19 -42 -25 -55 -12 -4 3 -2 13 5 20 8 10 8 17
2 21 -6 4 -13 15 -17 24 -4 11 -14 16 -27 13 -12 -2 -33 3 -46 11 -22 15 -24
15 -30 0 -7 -18 -44 -22 -44 -4 0 6 -7 3 -15 -8 -8 -11 -15 -14 -15 -6 0 6 -5
11 -11 10 -6 -2 -14 3 -16 10 -4 10 3 13 32 12 3 0 18 6 33 14 24 13 33 13 55
1 21 -11 29 -11 44 0 19 13 24 15 49 15 8 0 12 5 9 10 -3 6 1 10 9 10 9 0 16
5 16 10 0 16 -38 12 -47 -5 -9 -14 -53 -11 -53 5 0 23 55 41 134 43 47 1 83 0
80 -4 -2 -3 8 -4 21 -1 13 2 24 7 23 11 -2 11 14 41 22 41 4 0 10 -9 13 -21z
m-463 -229 c-10 -19 -9 -21 12 -18 14 2 22 -2 21 -9 -2 -7 6 -13 17 -13 11 0
20 -7 20 -15 0 -7 8 -19 18 -25 16 -11 16 -11 -1 -6 -10 3 -25 6 -33 6 -9 0
-13 4 -10 9 7 11 -8 8 -44 -6 l-25 -10 23 -7 c13 -5 26 -5 29 -2 3 3 12 -2 18
-11 14 -18 9 -43 -7 -43 -6 0 -8 7 -4 15 7 19 -24 21 -43 3 -10 -11 -15 -10
-25 5 -7 9 -19 17 -27 18 -10 0 -11 2 -1 6 6 2 12 9 12 14 0 5 -6 9 -12 9 -21
-1 -46 -25 -53 -51 -5 -21 -2 -24 25 -26 70 -5 71 -6 55 -22 -13 -13 -19 -13
-35 -3 -11 7 -20 8 -20 3 0 -5 5 -11 12 -13 6 -2 8 -9 4 -16 -4 -7 -29 -11
-62 -10 -55 2 -55 2 -33 19 13 9 28 15 35 12 10 -4 11 3 4 26 -5 19 -5 33 1
37 5 3 7 9 4 14 -3 5 -1 11 5 15 5 3 10 14 10 25 0 11 10 20 27 25 26 6 26 8
10 19 -18 14 -24 46 -7 46 5 0 7 -6 4 -14 -4 -11 2 -12 35 -3 23 6 41 15 41
21 0 5 3 7 6 4 3 -4 0 -16 -6 -28z m1054 5 c27 -13 52 -22 57 -19 5 3 9 -1 9
-9 0 -23 30 -77 43 -77 7 0 6 4 -3 10 -8 5 -11 12 -7 17 10 9 48 -38 41 -49
-3 -5 -10 -6 -15 -3 -5 4 -9 2 -9 -3 0 -6 7 -12 15 -16 9 -3 15 0 15 10 0 26
30 27 78 2 77 -41 96 -43 109 -8 l11 30 36 -36 c25 -25 42 -34 54 -30 10 4 6
-4 -10 -18 -30 -27 -22 -45 11 -25 15 10 24 9 45 -4 31 -21 34 -37 6 -30 -11
3 -20 12 -20 19 0 17 -12 18 -27 3 -7 -7 -22 -7 -52 2 -25 7 -37 15 -30 20 15
9 4 39 -15 39 -7 0 -16 -7 -20 -15 -7 -20 -36 -19 -52 3 -8 9 -14 12 -14 5 0
-7 -11 -1 -25 13 -26 26 -55 29 -63 7 -2 -8 6 -13 20 -13 22 0 58 -19 84 -45
12 -12 16 -85 4 -85 -5 0 -11 4 -15 10 -3 5 -12 7 -19 4 -19 -7 -31 15 -17 29
8 8 11 8 11 0 0 -6 7 -13 15 -17 11 -4 15 2 15 23 0 24 -6 31 -31 40 -44 15
-51 14 -44 -9 4 -12 2 -20 -5 -20 -8 0 -11 -11 -8 -30 4 -27 2 -30 -23 -30
-16 0 -32 7 -37 17 -5 9 -16 14 -25 10 -8 -3 -24 1 -36 9 -18 13 -20 13 -15
-1 9 -23 -22 -19 -46 7 -11 12 -23 18 -27 15 -4 -4 -1 -13 5 -19 19 -19 14
-28 -13 -28 -14 0 -25 5 -25 11 0 5 -5 7 -12 3 -7 -4 -8 -3 -4 4 5 9 13 9 27
1 19 -10 19 -9 9 10 -6 12 -15 21 -20 21 -22 0 -26 2 -47 22 -12 12 -20 24
-17 29 2 4 -4 12 -13 18 -17 9 -16 12 9 37 15 16 30 25 34 21 3 -3 -1 -13 -10
-22 -14 -15 -14 -19 6 -49 18 -27 24 -31 35 -20 17 17 16 24 -2 24 -8 0 -15 5
-15 10 0 6 7 10 16 10 8 0 12 5 9 10 -9 15 12 12 45 -5 28 -14 34 -13 31 8 -2
11 13 9 26 -4 7 -7 19 -9 28 -5 13 5 11 11 -15 36 -17 16 -35 30 -40 30 -17 0
-72 58 -66 69 4 5 -3 15 -14 21 -11 6 -20 15 -20 20 0 17 33 11 84 -15z m978
-12 c10 -9 18 -22 18 -30 0 -7 5 -13 10 -13 6 0 10 -8 10 -17 0 -15 2 -14 15
3 15 19 16 18 38 -7 12 -14 48 -36 79 -50 39 -16 58 -30 58 -41 0 -10 5 -18
10 -18 6 0 10 4 10 9 0 9 71 23 79 16 2 -3 -4 -12 -15 -19 -19 -14 -19 -15 2
-38 31 -33 40 -83 18 -92 -12 -5 -30 6 -61 36 -29 28 -46 39 -53 32 -7 -7 0
-20 20 -39 52 -50 32 -49 -23 2 -42 37 -51 50 -40 58 10 7 5 11 -18 12 -35 3
-51 13 -31 21 9 3 6 8 -10 16 -16 8 -22 19 -21 36 3 24 3 24 -7 3 -18 -44 -79
-5 -71 45 2 10 -4 12 -18 7 -12 -4 -21 -2 -21 4 0 6 6 11 13 11 7 1 5 6 -5 14
-17 13 -25 56 -11 56 3 0 15 -7 25 -17z m-281 -235 c23 -24 39 -35 36 -25 -4
9 -2 17 3 17 15 0 23 -21 12 -32 -10 -10 4 -58 17 -58 11 0 7 90 -3 90 -15 1
-51 29 -45 35 8 7 69 -18 69 -29 0 -5 8 -18 18 -29 15 -18 15 -20 0 -14 -9 3
-19 0 -22 -8 -6 -16 41 -105 55 -105 11 0 12 13 0 26 -14 16 -31 74 -20 74 5
0 9 -4 9 -9 0 -18 49 -61 64 -55 20 8 21 34 1 34 -17 0 -20 16 -5 25 6 4 8 10
5 15 -3 4 4 10 15 13 15 4 20 0 20 -14 0 -10 6 -19 14 -19 19 0 29 17 16 25
-5 3 -15 16 -21 27 -10 18 -9 20 6 14 12 -4 16 -2 12 8 -4 10 -1 13 7 10 8 -3
13 -13 12 -22 -1 -11 8 -18 25 -20 18 -2 31 -13 42 -38 11 -22 24 -34 37 -34
23 0 178 -145 167 -156 -3 -4 7 -26 23 -49 21 -30 35 -42 47 -39 13 3 28 -10
51 -45 19 -27 46 -62 62 -78 28 -29 85 -132 77 -140 -3 -2 -15 12 -27 31 -26
43 -33 45 -24 9 4 -16 -8 -1 -25 32 -18 33 -41 69 -50 80 -10 11 -24 31 -31
43 -9 19 -17 22 -36 18 -20 -5 -26 -2 -34 19 -10 27 -25 33 -33 13 -3 -8 -7
-5 -11 7 -4 11 -13 34 -21 50 -7 17 -16 38 -19 48 -3 9 -12 17 -20 17 -8 0
-17 14 -21 33 -9 39 -22 57 -42 57 -9 0 -31 14 -51 31 -32 29 -36 30 -42 14
-5 -15 -8 -16 -15 -6 -5 9 -2 17 9 23 20 11 12 28 -15 28 -12 0 -17 -4 -14
-11 4 -5 -1 -20 -12 -31 -10 -12 -13 -18 -6 -14 21 12 62 -96 63 -164 1 -43
21 -75 38 -58 9 9 12 8 12 -6 0 -9 4 -15 9 -11 16 9 49 -34 44 -56 -6 -23 25
-27 33 -4 9 23 34 -1 32 -29 -3 -33 22 -86 37 -80 15 6 45 -33 45 -58 0 -10
-5 -18 -11 -18 -6 0 -8 7 -5 16 6 15 4 15 -19 0 -25 -17 -25 -16 -21 8 3 14 2
25 -2 23 -12 -3 -72 25 -72 34 0 12 17 11 23 -1 3 -6 4 -5 3 2 -2 7 -10 13
-19 13 -8 0 -19 3 -22 7 -4 4 -13 4 -20 2 -8 -4 -14 9 -18 41 -2 26 -9 51 -15
57 -7 7 -9 -3 -6 -33 l4 -43 -24 34 c-13 19 -22 39 -19 43 3 5 -4 11 -16 14
-12 3 -21 9 -21 13 0 4 -16 11 -35 14 -26 5 -35 12 -35 26 0 11 -4 20 -10 20
-5 0 -10 7 -10 16 0 10 -7 14 -22 12 -15 -2 -23 2 -23 12 0 9 7 14 19 12 11
-2 16 1 13 10 -2 7 -11 12 -20 12 -9 -1 -14 2 -11 7 3 5 7 23 9 40 3 21 1 29
-8 25 -7 -3 -19 -9 -28 -12 -12 -4 -16 -17 -15 -45 0 -33 3 -37 12 -24 10 14
12 14 17 1 4 -9 2 -18 -3 -21 -15 -9 -12 -25 5 -25 8 0 15 -6 15 -14 0 -8 8
-13 17 -12 12 1 19 -7 21 -24 2 -23 1 -24 -11 -7 -16 19 -32 23 -20 5 4 -7 6
-23 4 -36 -2 -17 2 -22 15 -20 9 2 19 -4 21 -12 4 -13 3 -13 -6 0 -6 8 -11 10
-11 4 0 -6 -11 -11 -23 -11 -17 0 -29 9 -41 36 -10 20 -22 43 -27 51 -5 8 -14
25 -21 38 -18 36 -40 28 -35 -12 4 -27 1 -33 -10 -29 -8 3 -11 13 -8 24 6 17
3 18 -19 9 -24 -9 -28 -6 -52 31 -14 23 -23 43 -20 46 3 3 13 -8 23 -26 10
-17 24 -31 31 -31 7 0 4 8 -8 20 -11 11 -20 26 -20 33 0 7 -13 31 -29 53 -36
50 -46 81 -31 99 10 12 10 19 -1 32 -12 15 -12 16 4 10 11 -4 17 -2 17 8 0 20
17 19 29 -2 9 -16 10 -14 11 9 0 15 -4 30 -10 33 -10 6 -14 25 -5 25 2 0 23
-19 46 -42z m-820 -19 c16 -18 26 -36 23 -40 -3 -5 4 -9 16 -9 12 0 19 -4 15
-10 -9 -15 18 -50 40 -50 11 -1 31 -7 45 -15 33 -19 40 -18 40 3 1 15 2 15 14
-3 8 -11 23 -31 35 -45 11 -14 36 -46 55 -72 34 -45 34 -46 13 -53 -14 -4 -17
-8 -9 -12 14 -5 17 -33 3 -33 -5 0 -16 11 -25 25 -18 28 -51 33 -60 10 -3 -9
1 -32 8 -53 8 -20 17 -50 20 -67 6 -28 5 -27 -17 11 -13 22 -27 53 -31 68 -8
32 -52 80 -65 72 -5 -3 -12 2 -17 12 -10 23 -14 78 -4 62 6 -10 9 -9 14 1 3 8
4 -3 2 -23 -4 -34 -2 -38 19 -38 21 0 22 3 16 33 -15 62 -48 104 -90 110 -13
2 -38 21 -57 43 -28 33 -35 37 -45 24 -9 -13 -10 -13 -5 2 6 20 -10 34 -17 16
-4 -9 -6 -10 -6 -1 -2 21 19 25 51 9 45 -23 47 -20 11 13 -18 16 -33 31 -33
35 0 13 15 4 41 -25z m-546 -9 c-7 -12 2 -12 30 -1 16 7 29 -1 68 -43 26 -28
47 -53 47 -56 -1 -2 5 -7 13 -10 20 -7 127 -132 127 -147 0 -23 -17 -13 -30
16 -13 33 -31 43 -57 35 -14 -5 -15 -4 -4 4 11 8 7 17 -25 46 -21 20 -42 36
-46 36 -16 0 -7 -17 22 -45 40 -38 38 -54 -2 -22 -46 37 -135 77 -156 71 -14
-5 -15 -4 -2 5 13 9 12 11 -2 16 -9 4 -15 16 -14 30 0 13 4 21 7 19 11 -7 18
22 9 37 -7 11 -10 11 -15 -3 -4 -10 -14 -14 -27 -10 -20 5 -20 5 3 18 28 16
63 18 54 4z m-50 -50 c3 -6 -1 -13 -9 -16 -11 -4 -14 -14 -10 -33 7 -29 44
-74 44 -53 0 7 5 10 10 7 6 -4 8 -10 6 -14 -3 -4 3 -20 13 -35 11 -16 21 -23
25 -18 4 6 -1 15 -10 20 -12 6 -13 11 -5 16 14 9 55 -79 47 -100 -3 -8 -1 -14
4 -14 5 0 12 -11 16 -24 3 -13 19 -33 35 -45 29 -21 40 -61 17 -61 -6 0 -4 -7
5 -18 20 -22 22 -38 5 -40 -52 -7 -62 -11 -69 -28 -4 -10 -8 -13 -8 -6 -1 7
-5 11 -10 7 -6 -3 -15 4 -22 16 -12 24 2 42 27 32 9 -3 11 6 7 33 -3 25 -1 34
6 30 6 -4 11 0 11 8 0 9 -4 16 -10 16 -13 0 -30 -34 -30 -59 0 -23 -1 -24 -24
-15 -23 9 -20 45 3 51 12 3 17 11 14 19 -5 13 -8 13 -22 0 -13 -12 -20 -13
-29 -4 -9 9 -12 9 -12 -1 0 -7 -4 -10 -9 -7 -4 3 -6 17 -3 31 7 37 -23 32 -38
-6 -11 -25 -11 -35 -1 -51 6 -10 9 -24 5 -30 -4 -6 -13 6 -20 27 -9 27 -10 42
-2 55 15 24 2 71 -17 64 -8 -4 -15 -12 -15 -20 0 -8 -4 -14 -10 -14 -16 0 -11
28 6 38 18 10 12 21 -48 80 -32 31 -36 46 -9 39 14 -3 17 0 13 15 -6 24 -30
34 -45 19 -6 -6 -14 -11 -18 -11 -13 0 -19 33 -8 46 15 19 30 18 23 -1 -7 -16
11 -21 21 -5 10 17 34 -1 40 -31 4 -16 11 -29 16 -29 6 0 15 -13 20 -30 6 -16
15 -30 20 -30 17 0 9 46 -11 63 -27 23 -25 31 10 44 35 13 38 28 9 43 -20 11
-20 12 -2 25 22 17 40 19 48 5z m1267 -39 c-6 -4 3 -29 23 -63 18 -31 31 -59
27 -62 -3 -4 10 -22 28 -41 18 -19 31 -37 28 -41 -4 -3 -13 3 -20 15 -17 27
-43 27 -62 -1 -13 -18 -13 -23 -2 -32 7 -6 19 -26 25 -45 13 -41 14 -44 1 -36
-12 7 -2 -21 17 -52 9 -13 10 -23 4 -27 -5 -4 -7 -22 -4 -41 7 -46 -3 -45 -22
2 -12 28 -18 34 -24 24 -5 -7 -14 -10 -20 -7 -6 4 -9 12 -5 17 3 6 -2 19 -11
29 -13 15 -16 30 -12 60 3 22 1 40 -3 40 -5 0 -5 12 -1 28 6 20 2 40 -16 75
-28 57 -18 62 17 7 23 -39 48 -55 36 -25 -3 8 4 21 15 29 20 14 20 15 -15 82
-39 75 -41 78 -26 69 6 -3 10 -1 10 5 0 6 5 8 11 4 7 -4 8 -9 1 -13z m-802
-132 c0 -16 5 -29 10 -29 6 0 8 11 4 25 -3 14 -2 25 3 25 16 0 33 -23 33 -45
0 -18 5 -21 30 -17 24 3 30 1 31 -14 0 -11 3 -14 6 -6 8 21 19 13 51 -38 17
-28 42 -55 56 -61 13 -6 27 -23 31 -37 3 -14 15 -37 26 -50 20 -26 24 -42 10
-42 -4 0 -21 20 -36 45 -29 45 -49 54 -26 12 7 -13 11 -27 10 -33 -1 -5 1 -17
5 -26 5 -10 5 -26 1 -35 -5 -14 -12 -7 -30 32 -17 36 -24 44 -24 28 -1 -13 -5
-23 -10 -23 -12 0 -61 47 -61 60 0 6 -8 10 -17 8 -10 -2 -22 7 -30 22 -7 14
-18 24 -26 23 -15 -3 -24 8 -82 111 -51 89 -54 100 -25 91 11 -3 20 -2 20 3 0
6 9 8 20 5 14 -4 20 -14 20 -34z m-1730 -114 c0 -7 7 -16 16 -19 8 -3 12 -10
9 -16 -16 -25 13 -6 42 27 29 35 32 36 39 18 4 -11 14 -28 22 -38 14 -16 13
-19 -6 -37 -16 -15 -20 -29 -18 -62 2 -24 2 -35 -1 -25 -2 9 -9 17 -14 17 -6
0 -7 5 -4 11 4 6 -3 22 -16 35 -22 23 -24 24 -36 8 -10 -14 -9 -22 4 -45 9
-15 27 -33 39 -40 22 -11 22 -13 6 -25 -9 -7 -25 -14 -34 -14 -10 0 -18 -7
-18 -15 0 -18 -16 -20 -24 -2 -4 6 -4 -3 -1 -20 3 -24 1 -33 -10 -33 -9 0 -12
6 -9 15 4 8 1 22 -6 30 -10 12 -10 18 0 30 10 13 9 15 -8 15 -14 0 -20 5 -16
14 6 16 44 29 44 15 0 -5 5 -9 10 -9 15 0 12 17 -6 35 -9 9 -23 14 -30 11 -15
-6 -39 30 -25 38 4 3 6 16 4 30 -3 13 0 27 6 30 6 4 9 2 6 -6 -3 -8 3 -13 18
-13 22 0 22 2 10 25 -15 30 -17 43 -3 35 6 -3 10 -12 10 -20z m-106 -237 c-3
-13 -13 -31 -22 -40 -14 -16 -13 -18 1 -18 10 0 17 5 17 12 0 19 31 47 46 41
9 -3 14 2 14 13 0 16 2 16 10 4 11 -18 -8 -43 -28 -35 -12 5 -13 3 -2 -10 8
-10 17 -12 23 -6 10 10 57 -25 57 -42 0 -6 -8 -3 -18 6 -10 10 -22 17 -25 17
-13 0 -7 -58 6 -63 6 -2 4 -3 -5 -2 -14 2 -18 -4 -18 -25 0 -16 -5 -30 -11
-32 -8 -3 -4 -18 10 -46 23 -45 27 -67 11 -57 -6 4 -19 -3 -29 -16 -14 -18
-21 -20 -37 -11 -17 10 -17 11 9 12 24 0 26 2 17 19 -5 11 -7 26 -4 34 3 8 1
18 -4 21 -5 3 -9 0 -8 -7 0 -6 -3 -12 -9 -12 -5 0 -10 10 -10 22 0 24 -14 44
-16 22 -1 -8 -1 -20 0 -27 1 -8 -3 -20 -10 -28 -10 -12 -9 -13 5 -8 10 4 16 1
16 -9 0 -8 -6 -17 -12 -19 -10 -4 -10 -10 -1 -29 6 -13 12 -18 12 -11 1 16 11
15 35 -3 14 -10 16 -18 9 -27 -6 -7 -13 -30 -17 -50 -4 -21 -10 -38 -14 -38
-8 0 -42 79 -42 98 0 7 -4 10 -10 7 -5 -3 -12 7 -15 22 -4 15 -10 37 -14 48
-7 18 -9 18 -26 -8 -15 -24 -16 -33 -6 -66 16 -55 13 -71 -7 -33 -18 33 -32
34 -32 1 0 -9 -7 -19 -15 -23 -11 -4 -15 2 -16 22 l-1 27 -13 -30 c-19 -40
-18 -70 1 -107 14 -28 14 -32 0 -46 -15 -15 -16 -14 -16 11 0 26 -20 40 -20
15 -1 -7 -11 0 -24 16 -14 17 -22 36 -18 45 5 12 7 11 12 -8 7 -33 28 -38 34
-9 2 13 12 55 21 94 8 39 12 79 9 89 -5 13 -4 16 5 11 10 -6 12 4 10 43 -2 40
2 57 19 78 25 31 26 37 12 64 -7 12 -7 19 -1 19 5 0 13 -9 16 -20 11 -33 34
-22 53 25 7 17 22 41 32 55 17 21 19 22 15 5 -6 -18 -4 -18 11 3 9 12 21 22
26 22 5 0 6 -10 2 -22z m918 -43 c6 -14 18 -25 27 -25 9 0 23 -15 31 -33 8
-17 23 -34 33 -35 16 -3 17 -1 7 17 -6 12 -8 31 -5 41 6 18 2 21 -22 20 -5 -1
-7 -11 -6 -23 l3 -22 -10 23 c-14 33 -4 47 35 49 29 3 35 0 35 -16 0 -11 5
-23 10 -26 6 -3 8 -18 5 -33 -5 -24 -5 -24 9 5 8 17 12 41 9 52 -4 16 -1 21
15 21 16 0 22 -9 29 -47 8 -46 29 -63 27 -23 0 11 3 20 8 20 9 0 9 -24 -1 -59
-6 -21 -8 -22 -20 -7 -7 8 -17 14 -21 11 -5 -3 -11 4 -15 15 -4 11 -11 18 -16
14 -5 -3 -7 -14 -4 -24 7 -23 -11 -35 -30 -20 -12 10 -15 9 -15 -7 0 -10 -5
-24 -12 -31 -8 -8 -8 -15 2 -27 7 -8 11 -18 8 -20 -9 -9 -58 47 -90 104 -18
31 -35 58 -40 59 -4 2 -8 10 -8 18 0 9 -6 11 -17 7 -15 -6 -16 -5 -3 10 21 23
29 21 42 -8z m3048 -2789 c78 -7 84 -8 95 -17 6 -4 33 -11 60 -14 95 -12 155
-24 182 -38 16 -8 37 -13 49 -11 23 4 80 -51 64 -61 -6 -3 -10 -1 -10 5 0 6
-4 9 -9 6 -4 -3 -16 3 -26 14 -10 11 -23 20 -30 20 -13 0 -30 -31 -40 -70 l-6
-25 13 23 c10 16 17 19 25 11 8 -8 17 -8 32 0 15 8 27 9 41 1 18 -10 19 -19
16 -105 -2 -71 -7 -100 -21 -122 -11 -15 -20 -32 -21 -38 -40 -200 -53 -257
-61 -268 -6 -6 -13 -23 -16 -37 -4 -14 -22 -51 -40 -82 -19 -31 -28 -54 -21
-51 18 7 18 -2 -2 -21 -18 -19 -38 -21 -28 -3 4 7 3 9 -2 4 -5 -5 -9 -14 -9
-20 0 -7 -10 -13 -23 -15 -22 -3 -23 -4 -5 -17 17 -14 17 -14 -3 -15 -12 0
-45 -10 -74 -22 -35 -14 -54 -18 -58 -11 -8 12 -21 10 -176 -27 -49 -11 -95
-19 -102 -16 -8 3 -16 1 -19 -4 -3 -5 -27 -7 -52 -3 -32 4 -44 3 -40 -5 5 -7
-95 -9 -335 -8 -282 2 -357 6 -422 20 -125 28 -181 52 -214 94 -80 104 -159
292 -122 292 19 0 60 52 60 75 0 30 -37 75 -61 75 -16 0 -18 -3 -9 -19 7 -13
7 -22 0 -26 -16 -10 -31 5 -28 28 2 12 -1 21 -7 20 -12 -2 -19 64 -18 171 1
82 15 117 59 140 10 6 35 20 54 31 55 33 163 63 305 84 39 6 88 16 110 22 122
32 733 55 945 35z m-2730 -70 c85 -9 180 -20 210 -26 30 -6 71 -13 90 -16 84
-14 188 -55 219 -86 37 -38 45 -75 37 -166 -16 -187 -44 -292 -121 -458 -72
-154 -133 -206 -296 -252 -141 -40 -139 -40 -296 -57 -233 -26 -542 -30 -738
-10 -249 24 -375 51 -375 79 0 6 -15 22 -33 35 -49 37 -110 127 -142 211 -16
41 -29 82 -30 90 -5 41 -19 96 -27 107 -5 6 -13 38 -18 70 -5 32 -12 69 -15
83 -17 76 -17 139 0 184 10 25 22 46 26 46 5 0 9 7 9 15 0 18 95 67 170 88 95
26 94 26 405 60 173 20 729 21 925 3z"/>
<path d="M7750 8589 c-117 -8 -202 -44 -267 -111 -39 -40 -100 -161 -84 -166
6 -2 11 -8 11 -13 0 -6 -4 -7 -10 -4 -5 3 -10 -2 -10 -11 0 -16 1 -16 20 1 11
10 20 24 20 30 0 7 7 18 15 25 19 16 209 -6 242 -28 37 -24 162 -52 230 -52
59 0 64 2 73 25 5 14 13 25 18 25 4 0 15 17 24 38 36 85 40 100 28 107 -4 2
-5 15 -3 29 3 13 0 33 -6 45 -10 17 -9 21 3 21 8 0 19 -7 24 -16 12 -21 48
-14 44 9 -4 22 14 22 23 0 7 -17 8 -16 15 2 5 11 9 14 9 6 1 -10 4 -11 15 -2
11 9 17 6 30 -14 9 -14 23 -25 31 -25 15 0 21 -31 9 -43 -7 -6 -37 9 -67 32
-28 23 -30 6 -3 -24 15 -16 26 -31 26 -34 0 -4 -14 -15 -30 -25 -17 -9 -43
-29 -58 -43 -25 -23 -25 -26 -10 -37 23 -17 4 -36 -34 -36 -16 0 -31 -7 -37
-19 -10 -17 -7 -18 32 -10 60 11 128 44 157 74 17 18 31 24 47 20 12 -3 25 -1
28 5 3 5 13 10 21 10 8 0 13 -4 10 -9 -3 -5 1 -14 8 -20 15 -13 20 -9 35 32 8
22 8 25 -5 20 -8 -3 -13 -12 -10 -20 3 -8 1 -11 -4 -8 -15 9 -12 24 10 47 11
12 20 30 20 41 0 17 2 17 20 -4 10 -13 19 -20 20 -15 0 4 16 -4 35 -18 46 -36
45 -19 -2 25 -49 46 -122 94 -165 108 -37 12 -109 25 -121 23 -23 -6 -267 3
-327 11 -8 1 -53 -1 -100 -4z"/>
<path d="M5607 8643 c-1 -1 -79 -3 -172 -4 -180 -2 -300 -21 -379 -58 -23 -11
-51 -22 -63 -26 -13 -3 -23 -10 -23 -15 0 -5 -20 -16 -45 -26 -25 -9 -45 -20
-45 -25 0 -4 -9 -11 -20 -14 -20 -6 -46 -42 -37 -52 3 -2 19 3 36 11 17 9 34
17 38 17 5 1 17 8 28 15 22 16 35 18 35 6 0 -5 -11 -15 -25 -22 -17 -9 -23
-19 -20 -31 4 -12 -1 -23 -14 -31 -12 -7 -21 -19 -21 -27 0 -11 4 -11 18 2 10
10 24 17 30 17 6 0 16 9 22 20 6 11 17 20 25 20 8 0 24 10 36 23 12 12 19 16
15 10 -4 -8 -1 -13 7 -13 8 0 24 -9 37 -20 13 -12 30 -18 37 -15 7 3 19 8 27
11 11 4 14 -1 13 -15 -1 -13 -8 -21 -19 -21 -58 0 51 -58 123 -66 27 -3 49 -3
49 -1 0 7 -96 37 -119 37 -24 0 -33 13 -25 34 5 14 9 14 36 0 40 -20 48 -10
14 17 -18 14 -26 28 -23 40 5 20 -7 26 -18 9 -9 -15 -27 -1 -21 16 4 10 -4 14
-29 14 -28 0 -35 4 -35 19 0 10 7 21 15 25 11 4 14 13 9 31 -5 22 -3 25 21 25
23 0 25 -3 19 -22 -6 -21 -6 -22 12 -8 34 28 54 50 54 60 0 17 14 11 28 -10
11 -17 15 -18 35 -8 12 7 24 16 27 20 3 4 11 3 19 -1 10 -7 9 -9 -3 -14 -9 -4
-13 -13 -10 -22 4 -9 1 -15 -9 -15 -10 0 -13 -7 -10 -19 3 -10 0 -28 -6 -40
-9 -16 -8 -28 4 -51 9 -17 15 -36 13 -43 -1 -6 6 -27 16 -46 14 -27 15 -35 5
-42 -24 -14 38 -29 125 -29 83 0 230 34 263 62 8 6 62 15 121 19 102 8 108 7
123 -13 10 -13 23 -19 32 -15 15 5 15 10 0 53 -9 26 -24 55 -34 65 -11 11 -19
28 -19 39 0 11 -3 20 -8 20 -4 0 -28 17 -54 38 -26 22 -68 45 -95 52 -26 7
-54 18 -62 24 -11 9 -97 16 -104 9z m210 -114 c24 -50 19 -96 -11 -105 -11 -4
-29 -15 -39 -25 -30 -32 -38 -23 -31 36 4 33 2 72 -6 99 -7 25 -10 52 -7 61
10 25 72 -19 94 -66z"/>
<path d="M6353 8359 c-19 -30 -23 -43 -15 -48 16 -10 4 -41 -15 -41 -10 0 -12
6 -8 20 5 15 2 20 -12 20 -24 0 -37 -10 -52 -37 -17 -33 -14 -45 30 -90 38
-41 41 -42 63 -28 27 18 50 87 34 103 -7 7 -7 22 0 44 17 55 22 98 12 98 -5 0
-22 -18 -37 -41z"/>
<path d="M7085 12823 c35 -9 38 -21 13 -46 -24 -24 -24 -26 -8 -47 10 -14 20
-19 24 -12 3 6 0 13 -6 15 -7 3 -1 6 15 6 18 1 27 -4 27 -14 0 -8 6 -15 14
-15 9 0 12 -7 10 -17 -3 -11 3 -23 15 -30 18 -11 19 -10 14 19 -4 26 -2 30 12
24 21 -8 38 2 28 17 -14 23 -11 37 7 37 10 0 22 -4 25 -10 3 -5 1 -10 -6 -10
-10 0 -10 -3 -1 -12 10 -10 15 -10 22 2 9 15 11 13 14 -12 1 -14 26 -24 26
-10 0 6 -13 22 -30 35 -16 14 -30 30 -30 36 0 13 -33 23 -54 15 -9 -3 -27 1
-41 10 -13 9 -30 13 -38 10 -8 -3 -18 -1 -22 5 -3 6 -16 10 -28 10 -20 -1 -20
-2 -2 -6z"/>
<path d="M6823 12703 c-7 -2 -13 -9 -13 -15 0 -6 6 -6 15 2 12 10 15 10 15 -4
0 -14 -11 -21 -32 -17 -5 0 -8 -3 -8 -9 0 -5 6 -10 13 -11 6 0 3 -4 -8 -8 -13
-6 -23 -4 -28 5 -12 21 -57 18 -57 -4 0 -16 10 -18 83 -20 57 -1 75 1 61 8
-12 5 -25 13 -29 19 -8 13 0 14 23 2 9 -5 55 -25 102 -45 97 -41 150 -47 150
-17 0 15 -10 21 -42 26 -24 4 -52 13 -63 19 -11 7 -47 21 -80 31 -71 22 -74
23 -55 35 12 8 9 10 -10 9 -14 0 -31 -3 -37 -6z"/>
<path d="M3642 10049 c-7 -12 -19 -18 -26 -16 -10 4 -12 -1 -9 -14 3 -11 0
-19 -6 -19 -7 0 -10 -4 -7 -8 3 -5 1 -22 -3 -38 l-9 -29 -9 24 c-5 14 -13 20
-16 14 -9 -15 -11 -65 -3 -84 5 -11 -1 -19 -19 -27 -17 -8 -25 -19 -24 -34 1
-22 1 -22 10 2 6 17 7 7 3 -31 -4 -50 -3 -57 13 -55 13 1 19 -7 21 -26 2 -20
0 -26 -10 -23 -17 7 -53 -30 -54 -54 -2 -34 -17 -81 -26 -81 -6 0 -8 -12 -5
-27 3 -15 0 -35 -6 -44 -14 -23 -5 -33 23 -24 19 6 21 12 16 39 -4 19 -3 26 3
18 6 -10 10 -7 15 11 3 14 14 33 23 42 19 19 21 32 28 163 2 51 9 101 15 112
6 11 8 20 5 20 -3 0 0 10 7 23 7 12 11 25 10 29 -1 4 3 31 9 59 8 36 15 49 25
45 9 -3 16 4 20 20 8 32 2 38 -14 13z"/>
<path d="M5386 9315 c-9 -9 -16 -21 -16 -26 0 -5 -7 -9 -15 -9 -8 0 -15 -8
-15 -17 0 -28 -42 -43 -78 -27 -17 7 -33 10 -36 7 -3 -4 -6 1 -6 10 0 10 -6
17 -14 17 -17 0 -41 -28 -32 -37 4 -4 11 -1 15 6 6 9 11 10 15 2 4 -6 3 -11
-2 -11 -5 0 -14 -11 -20 -24 -7 -15 -23 -27 -43 -31 -22 -5 -28 -10 -18 -15 7
-5 17 -6 21 -3 10 5 38 -15 38 -28 0 -5 -9 -9 -20 -9 -11 0 -20 -5 -20 -11 0
-5 -5 -7 -11 -4 -6 4 -8 14 -4 22 4 13 3 14 -9 4 -9 -7 -24 -10 -37 -6 -16 5
-20 3 -17 -6 3 -8 12 -13 22 -11 9 2 16 -2 16 -8 0 -5 -11 -10 -24 -10 -20 0
-36 -16 -36 -36 0 -9 144 7 150 16 3 5 21 8 39 5 18 -2 44 0 57 5 14 6 26 6
29 0 4 -6 19 -17 34 -24 24 -13 31 -13 56 0 26 13 30 13 37 -1 11 -18 39 -20
56 -3 8 8 15 8 26 -1 9 -7 38 -13 65 -13 59 1 136 -32 127 -54 -4 -11 -1 -11
19 2 14 9 25 19 25 23 0 3 16 7 36 9 27 1 46 -5 70 -23 34 -26 54 -32 54 -16
0 16 54 20 63 5 12 -21 27 -17 27 7 0 19 1 19 16 5 20 -21 31 -20 43 3 7 13
21 18 51 18 22 0 40 -3 40 -7 0 -4 10 -10 22 -13 26 -7 40 10 28 33 -6 12 -4
16 12 17 17 2 19 -3 15 -25 -6 -30 15 -68 32 -57 7 4 8 0 4 -10 -5 -15 -3 -15
15 -4 21 13 21 13 -8 26 -30 12 -43 30 -15 19 8 -3 15 -1 15 3 0 5 -7 11 -15
15 -8 3 -12 12 -9 20 3 8 -3 19 -15 25 -23 13 -72 15 -70 4 3 -19 -2 -33 -12
-33 -7 0 -9 10 -5 26 6 21 4 25 -11 20 -22 -7 -50 8 -34 18 18 11 13 25 -8 19
-12 -3 -24 3 -33 16 -13 18 -23 20 -84 17 -42 -2 -61 0 -49 4 11 5 32 9 48 9
15 1 27 5 27 10 0 13 -54 24 -58 12 -2 -6 -13 -11 -25 -11 -21 1 -21 1 -4 14
16 12 13 14 -27 20 -25 4 -48 11 -51 17 -10 15 -25 10 -19 -6 4 -8 1 -15 -5
-15 -6 0 -11 7 -11 16 0 8 -4 13 -9 10 -5 -3 -14 1 -21 10 -11 12 -15 12 -22
2 -8 -10 -11 -10 -15 0 -7 17 -33 15 -33 -3 0 -8 -4 -15 -9 -15 -5 0 -17 -3
-27 -7 -13 -5 -16 -3 -11 9 3 9 -2 23 -13 33 -17 15 -19 15 -25 -4 -3 -11 -12
-18 -19 -15 -13 5 -43 -23 -34 -32 3 -3 22 -6 42 -7 20 -1 36 -6 36 -11 0 -5
-17 -5 -37 -1 -21 4 -48 7 -60 8 -27 1 -29 10 -8 27 9 7 13 15 11 18 -3 2 2
11 10 19 8 9 12 18 9 21 -3 4 -11 0 -16 -8 -7 -9 -12 -11 -15 -4 -2 6 -19 8
-36 6 -17 -3 -28 -1 -25 5 3 5 -3 9 -14 9 -10 0 -19 -4 -19 -8 0 -4 7 -8 15
-8 8 0 15 -4 15 -10 0 -5 -12 -10 -26 -10 -14 0 -23 -4 -20 -9 7 -11 -36 -23
-46 -13 -3 4 0 27 9 50 16 49 13 61 -11 37z"/>
<path d="M7736 9225 c-15 -14 -34 -25 -42 -25 -9 0 -27 -9 -42 -20 -21 -17
-34 -20 -81 -14 -48 5 -59 3 -78 -15 -25 -23 -43 -27 -43 -9 0 9 -3 9 -12 0
-15 -15 -54 -16 -63 -2 -4 6 -11 8 -16 4 -6 -4 -6 -10 0 -18 14 -17 4 -26 -28
-26 -49 0 -56 -17 -10 -22 30 -3 47 0 52 9 11 18 28 16 20 -3 -7 -20 -56 -40
-61 -25 -2 6 -10 11 -18 11 -9 0 -13 -4 -9 -9 3 -5 -7 -19 -22 -30 -54 -40
-83 -74 -72 -87 12 -14 59 -6 59 11 0 8 8 11 20 8 16 -4 18 -8 9 -19 -11 -13
-5 -19 15 -15 5 1 3 -5 -4 -14 -18 -21 -5 -31 15 -11 24 23 28 20 9 -9 -15
-24 -15 -25 2 -25 11 0 28 7 38 15 10 8 23 12 29 8 6 -3 7 -1 3 5 -4 7 -16 12
-27 12 -35 0 -10 43 31 53 14 4 19 4 13 1 -16 -7 -17 -34 -2 -34 5 0 7 -4 4
-10 -3 -5 -1 -10 5 -10 6 0 9 -4 6 -9 -4 -5 7 -4 24 2 19 7 30 18 30 31 0 11
3 16 6 13 4 -3 15 -2 25 4 15 7 19 6 19 -6 0 -9 -10 -19 -22 -24 -14 -5 -17
-10 -10 -15 7 -4 24 6 42 25 22 25 27 36 18 46 -7 9 -7 13 0 13 6 0 12 -6 15
-12 3 -10 9 -10 28 -1 40 20 69 25 69 13 0 -6 -6 -8 -12 -4 -10 5 -10 4 -1 -6
9 -9 9 -17 0 -31 -19 -31 1 -34 30 -4 60 60 88 75 149 79 32 3 72 7 87 10 21
3 27 1 23 -9 -7 -20 12 -29 37 -18 80 37 108 46 155 50 35 4 57 12 65 24 10
14 19 16 47 9 31 -7 32 -8 8 -9 -33 -1 -43 -15 -23 -31 9 -7 15 -8 15 -2 0 5
18 10 40 10 22 0 40 -3 40 -9 0 -15 27 -10 34 7 4 10 13 13 28 9 13 -3 5 5
-17 18 -61 38 -95 70 -95 92 0 24 -33 47 -56 38 -11 -4 -15 -14 -12 -35 5 -30
5 -30 -36 -24 -37 6 -62 24 -50 35 3 3 9 -1 14 -9 6 -8 10 -11 10 -6 0 5 7 3
15 -4 9 -7 19 -10 22 -6 4 4 1 11 -6 15 -7 5 -10 14 -6 21 4 6 -1 17 -11 25
-26 19 -39 19 -20 -1 20 -19 20 -28 1 -20 -8 3 -21 -1 -29 -9 -18 -18 -42 -10
-49 16 -5 20 -32 25 -57 9 -9 -5 -19 -5 -27 2 -10 8 -13 5 -13 -11 0 -14 -4
-20 -11 -15 -6 3 -9 14 -6 24 3 14 1 17 -11 13 -10 -4 -13 -2 -8 5 5 8 0 12
-14 12 -23 0 -41 -31 -22 -38 18 -6 14 -19 -8 -25 -11 -3 -20 -1 -20 4 0 5
-10 8 -22 6 -17 -1 -24 4 -26 21 -2 15 -10 22 -25 21 -17 -1 -18 -2 -4 -6 35
-9 10 -46 -28 -41 -29 3 -48 28 -22 28 8 0 17 7 21 15 8 22 -8 18 -38 -10z"/>
<path d="M7170 6893 c-30 -5 -41 -9 -141 -57 -42 -20 -99 -56 -127 -81 -27
-25 -54 -45 -59 -45 -6 0 -18 -9 -28 -20 -10 -11 -13 -20 -8 -20 6 0 16 6 22
14 7 8 22 17 35 20 13 3 31 17 40 31 20 30 35 31 78 5 18 -11 45 -20 61 -20
15 0 27 -6 27 -12 0 -9 3 -9 9 1 8 12 12 12 24 2 11 -9 17 -9 22 -1 4 6 13 9
21 6 8 -3 14 -1 14 5 0 6 7 8 15 5 10 -3 18 1 22 12 4 9 13 22 22 28 8 6 12
18 8 28 -4 9 -2 16 3 16 6 0 10 -9 10 -21 0 -11 4 -18 9 -15 5 3 7 22 4 42 -3
25 -1 34 6 30 7 -5 11 2 11 17 0 35 -26 42 -100 30z"/>
<path d="M6268 6853 c-20 -9 -38 -26 -41 -38 -2 -11 -8 -28 -12 -38 -4 -10 -4
-17 1 -15 5 1 22 -10 38 -25 16 -15 23 -27 16 -27 -7 0 -11 -2 -9 -4 2 -3 25
0 51 5 31 7 59 7 84 0 30 -8 43 -7 66 7 15 9 28 24 28 33 0 9 16 24 36 34 34
16 37 16 55 -1 28 -25 33 -12 8 20 -31 39 -82 56 -188 61 -77 4 -103 2 -133
-12z"/>
<path d="M6350 5783 c-8 -3 -31 -12 -50 -21 -19 -8 -38 -14 -42 -14 -4 1 -30
-12 -58 -28 -28 -17 -55 -30 -61 -30 -6 0 -8 -4 -5 -8 2 -4 -10 -14 -27 -22
-24 -11 -28 -15 -14 -18 9 -2 17 -12 17 -22 0 -10 7 -26 15 -34 14 -14 13 -16
-9 -22 -14 -3 -29 -3 -35 0 -6 4 -18 2 -28 -3 -10 -5 -46 -21 -80 -34 -35 -13
-60 -27 -56 -30 3 -4 -1 -7 -10 -7 -9 0 -19 -5 -23 -11 -4 -8 0 -9 15 -4 15 4
23 1 27 -10 4 -9 13 -14 20 -11 7 3 18 -3 23 -12 6 -9 11 -12 11 -7 0 6 4 17
10 25 7 12 12 12 29 -4 12 -11 21 -14 21 -8 0 16 32 10 61 -11 l24 -18 -41 4
c-39 5 -41 4 -36 -22 3 -14 7 -20 9 -13 3 6 13 12 24 12 16 0 18 -3 9 -19 -13
-25 -13 -42 1 -19 5 9 16 15 23 12 8 -3 19 4 26 16 6 11 15 18 19 15 5 -2 14
2 21 10 7 8 9 15 5 15 -4 0 -2 7 6 16 7 9 22 14 36 11 16 -3 28 2 37 14 14 21
28 15 19 -7 -3 -8 0 -14 6 -14 6 0 11 -5 11 -11 0 -6 -7 -9 -15 -5 -8 3 -15 1
-15 -4 0 -6 4 -10 10 -10 5 0 7 -14 3 -32 -6 -30 -5 -32 10 -19 9 7 17 22 17
32 0 10 4 21 10 24 6 3 7 -1 4 -9 -5 -14 -3 -14 25 0 28 14 34 14 62 0 16 -8
37 -12 45 -9 9 3 14 -2 14 -15 0 -22 18 -32 55 -32 32 0 42 -20 20 -37 -22
-15 -16 -17 19 -3 16 6 26 6 26 0 0 -6 10 -5 25 2 14 6 25 14 25 17 0 3 14 6
32 6 24 0 33 5 37 21 4 15 12 20 26 17 11 -2 28 -5 38 -7 10 -1 22 -8 26 -15
5 -7 11 -12 15 -12 3 1 7 1 9 0 36 -11 46 -7 59 27 13 33 16 35 30 20 14 -14
18 -14 28 -1 7 8 19 15 26 15 8 0 14 5 14 11 0 15 24 -11 34 -36 7 -19 9 -19
31 8 13 15 27 27 31 27 4 0 12 8 19 17 11 15 15 15 29 4 13 -11 17 -11 22 3 6
16 34 23 34 9 0 -9 57 -9 66 0 4 4 1 13 -5 21 -10 12 -8 13 16 7 18 -5 27 -14
25 -24 -2 -10 2 -17 8 -17 6 0 8 5 5 10 -3 6 0 10 9 10 8 0 22 3 31 7 14 5 16
2 10 -18 -7 -21 -6 -22 8 -10 9 7 15 18 14 24 -1 8 14 11 46 10 26 -1 45 3 42
7 -12 20 37 21 69 2 26 -15 37 -17 46 -9 10 9 12 8 7 -6 -8 -21 12 -57 31 -57
10 0 9 7 -3 30 -14 28 -14 30 2 31 11 0 13 3 6 6 -7 2 -13 12 -13 21 0 17 -38
48 -52 44 -4 -1 -27 4 -50 12 -24 8 -73 20 -109 27 -57 10 -66 15 -61 31 3 12
-1 18 -12 18 -9 0 -16 -4 -16 -10 0 -5 -16 -10 -36 -10 -19 0 -43 -4 -53 -10
-10 -5 -45 -12 -77 -14 -63 -6 -179 -25 -204 -34 -29 -10 -45 -14 -75 -17 -16
-1 -56 -6 -87 -9 -55 -6 -58 -5 -58 15 0 17 -3 19 -14 10 -14 -12 -100 -2
-161 18 -11 3 -46 6 -77 6 l-57 0 15 23 c9 13 14 25 12 27 -2 2 -12 -9 -23
-26 -16 -24 -25 -28 -45 -23 -28 7 -159 6 -172 -2 -4 -3 -8 0 -8 5 0 6 4 11 9
11 5 0 11 9 14 20 6 23 -10 17 -31 -11 -7 -10 -19 -16 -27 -13 -25 10 -16 74
11 74 8 0 14 4 14 9 0 5 10 13 23 17 12 4 28 16 36 27 14 20 14 20 23 -4 7
-18 5 -27 -12 -39 -11 -9 -18 -19 -15 -22 8 -8 115 93 115 109 0 7 7 13 15 13
8 0 15 5 15 10 0 6 -1 10 -2 9 -2 0 -10 -3 -18 -6z"/>
<path d="M8683 5213 c-18 -4 -20 -7 -10 -18 6 -7 15 -11 18 -9 3 2 6 -3 6 -11
0 -18 -5 -18 -46 -4 -27 9 -39 8 -72 -6 -37 -17 -39 -21 -33 -49 3 -16 15 -46
26 -65 21 -37 109 -172 118 -181 26 -26 100 -120 100 -128 0 -18 33 -23 51 -6
16 15 19 14 34 -16 9 -17 14 -43 12 -58 -4 -26 -4 -26 -12 -4 -5 14 -15 22
-31 22 -22 0 -22 -2 18 -67 22 -36 46 -82 53 -102 8 -23 15 -31 18 -21 12 34
14 59 7 71 -5 7 -2 22 6 35 14 20 13 22 -2 20 -20 -1 -31 29 -33 87 -1 28 -5
37 -18 37 -15 0 -16 2 -3 10 12 8 12 10 -3 14 -9 4 -25 8 -34 12 -15 4 -15 6
-3 15 13 8 13 10 1 18 -12 8 -13 20 -4 66 5 31 6 58 3 60 -10 6 -28 85 -33
147 -1 15 -8 33 -16 40 -11 11 -13 9 -7 -14 7 -32 -13 -40 -21 -8 -3 11 -9 20
-14 20 -12 0 -11 -17 1 -25 6 -4 8 -15 5 -26 -4 -10 -2 -19 3 -19 16 0 23 -61
10 -78 -11 -12 -10 -16 0 -20 9 -3 10 -8 3 -16 -12 -14 -4 -29 24 -43 15 -9
20 -24 22 -78 2 -50 0 -66 -9 -62 -8 2 -12 17 -10 33 2 22 0 26 -8 14 -8 -12
-16 -7 -49 29 l-40 45 20 27 c23 33 24 39 3 39 -9 0 -18 -9 -21 -20 -3 -11 -9
-20 -14 -20 -12 0 -11 17 1 25 8 5 8 11 0 20 -6 7 -8 20 -4 29 7 18 -20 23
-31 6 -10 -16 -25 -12 -19 5 4 8 16 15 28 15 27 0 73 57 58 72 -12 12 -32 2
-32 -16 0 -17 -38 -51 -48 -42 -4 4 1 14 12 21 22 17 14 48 -11 43 -10 -2 -22
-13 -28 -24 -10 -20 -11 -19 -36 15 -27 38 -28 61 -3 61 8 0 17 7 20 15 4 8
14 15 23 15 13 0 12 -4 -5 -18 -25 -19 -39 -58 -25 -66 5 -3 26 1 46 10 31 13
39 13 46 2 6 -9 9 -8 9 7 0 15 2 17 9 6 5 -7 14 -10 20 -7 6 4 9 11 6 16 -3 5
-1 20 4 34 8 20 7 24 -3 20 -13 -5 -33 13 -24 21 8 9 48 -8 48 -20 0 -7 7 -16
16 -19 11 -4 14 -1 12 11 -4 23 -76 61 -105 56z"/>
<path d="M6856 5061 c-4 -5 -14 -10 -24 -11 -9 0 -39 -1 -65 -3 -27 -1 -54 1
-60 5 -6 3 -20 0 -31 -8 -22 -14 -70 -8 -60 7 9 16 -10 9 -35 -12 -23 -18 -23
-20 -6 -33 17 -12 17 -13 -1 -13 -11 0 -22 4 -25 10 -4 5 -11 7 -17 3 -15 -9
8 -76 26 -76 9 0 23 -7 32 -15 15 -14 20 -13 43 6 15 11 27 16 27 10 0 -6 10
-11 22 -11 l21 0 -23 -25 c-13 -14 -19 -25 -12 -25 6 0 19 10 29 23 19 23 43
33 43 18 0 -4 11 -6 25 -3 14 2 25 9 25 14 0 5 -4 7 -9 3 -5 -3 -12 -1 -15 3
-3 5 5 15 19 22 20 11 28 10 58 -9 21 -13 38 -18 42 -12 11 19 36 0 29 -22 -5
-16 -3 -19 11 -14 9 4 23 7 31 7 18 0 18 25 -1 53 -8 13 -13 33 -10 45 3 17
-2 23 -21 28 -16 4 -23 11 -20 21 3 8 1 11 -5 8 -5 -4 -16 -2 -24 5 -8 7 -15
7 -19 1z"/>
<path d="M4435 4792 c-8 -59 -60 -315 -81 -402 -27 -113 -27 -117 -10 -117 10
0 19 11 22 26 3 14 12 46 20 70 8 25 14 53 14 62 0 10 7 22 15 26 16 9 24 45
29 128 2 28 9 90 15 139 8 72 8 91 -3 102 -12 11 -15 6 -21 -34z"/>
<path d="M7649 4353 c-9 -2 -21 -20 -27 -39 -9 -30 -8 -35 5 -30 8 3 17 6 19
6 3 0 2 5 -2 12 -4 7 -3 8 4 4 17 -10 15 -71 -2 -85 -11 -10 -16 -8 -21 8 -10
32 -25 25 -19 -9 4 -18 1 -36 -6 -45 -12 -14 -15 -14 -30 0 -19 18 -35 8 -19
-12 9 -10 8 -13 0 -13 -7 0 -28 16 -47 37 -32 34 -62 41 -34 8 7 -9 10 -18 6
-22 -10 -11 -46 -11 -46 0 0 5 -15 7 -35 4 -24 -4 -37 -1 -42 8 -8 14 -61 45
-77 45 -4 0 -5 -7 -2 -16 3 -8 2 -12 -4 -9 -6 3 -10 14 -11 23 0 9 -3 12 -5 6
-3 -6 0 -23 6 -39 10 -26 11 -26 34 -11 24 15 25 15 31 -15 4 -17 5 -33 2 -36
-10 -9 -47 8 -40 19 3 7 -4 4 -18 -5 -33 -24 -49 -21 -49 9 0 23 -3 25 -26 20
-20 -5 -27 -3 -31 13 -8 32 -41 36 -69 10 l-24 -22 0 21 c0 12 -5 22 -11 22
-5 0 -7 5 -4 10 3 6 3 15 0 20 -6 9 -75 -52 -75 -67 0 -3 8 -12 18 -19 10 -8
12 -13 4 -14 -7 0 -20 9 -29 19 -9 11 -20 18 -25 15 -5 -3 -4 -12 2 -19 14
-16 5 -35 -16 -35 -8 0 -14 -5 -14 -12 0 -6 -2 -9 -5 -6 -9 8 6 38 16 32 14
-8 11 4 -7 31 -19 30 -31 31 -57 8 -18 -17 -19 -17 -32 0 -19 27 -28 20 -22
-18 6 -38 -6 -46 -24 -16 -12 18 -49 18 -49 1 0 -5 -9 -12 -20 -15 -11 -4 -20
-15 -20 -26 0 -15 -6 -19 -22 -17 -13 2 -26 8 -30 13 -5 6 -12 4 -18 -5 -9
-13 -12 -13 -23 0 -8 10 -25 14 -49 12 -43 -4 -49 9 -15 27 12 6 14 9 5 7 -11
-3 -22 2 -28 14 -10 19 -12 19 -35 4 -23 -15 -37 -63 -15 -49 6 3 10 0 10 -7
0 -15 -66 -23 -75 -8 -3 5 5 22 19 37 28 30 26 45 -2 20 -18 -16 -19 -16 -32
7 -7 14 -10 32 -7 40 8 20 3 20 -18 -1 -13 -13 -18 -14 -25 -3 -13 21 -40 3
-42 -27 -2 -45 -3 -47 -20 -72 -16 -22 -18 -23 -24 -7 -4 10 -3 21 3 25 12 8
14 51 2 51 -5 0 -9 -5 -9 -12 0 -7 -5 -6 -12 4 -19 23 -45 29 -59 12 -10 -12
-9 -13 5 -8 20 8 21 -9 1 -26 -8 -7 -15 -21 -15 -31 0 -11 -4 -19 -10 -19 -9
0 -15 18 -22 65 -4 27 -32 25 -36 -3 -3 -19 -5 -20 -18 -8 -8 8 -14 22 -14 31
0 21 -14 34 -70 64 -25 14 -49 31 -53 38 -12 20 -27 6 -27 -26 0 -31 -29 -79
-30 -48 0 20 -25 23 -37 4 -4 -8 -16 -17 -27 -20 -14 -6 -17 -3 -12 8 3 8 0
15 -6 15 -6 0 -8 -11 -5 -30 4 -16 2 -32 -3 -35 -16 -10 -11 -45 5 -45 12 0
13 4 6 19 -10 18 -8 18 24 8 19 -6 35 -16 35 -24 0 -7 5 -13 10 -13 6 0 10 7
10 15 0 23 20 18 22 -5 0 -11 1 -25 2 -32 2 -20 -34 -17 -54 5 -23 24 -35 17
-45 -25 -5 -21 -3 -28 7 -28 9 0 18 -18 24 -52 5 -28 14 -53 19 -55 12 -4 12
83 1 108 -4 10 -2 20 5 25 8 4 10 3 5 -4 -4 -7 -2 -12 3 -12 6 0 11 4 11 9 0
17 32 4 71 -29 38 -32 51 -60 28 -60 -6 0 -9 7 -5 15 3 8 1 15 -4 15 -6 0 -10
-13 -10 -30 0 -16 -4 -30 -9 -30 -6 0 -9 -10 -8 -22 3 -42 49 -77 60 -45 3 9
7 9 20 -2 19 -15 23 -1 5 17 -9 9 -6 18 13 38 l24 26 6 -24 c3 -13 1 -29 -5
-37 -8 -11 -8 -13 2 -7 15 9 16 -8 1 -35 -9 -18 -8 -20 9 -17 10 2 26 -3 35
-11 14 -11 20 -11 33 0 14 11 18 10 30 -6 13 -17 16 -18 24 -5 5 8 10 20 10
26 0 6 17 15 38 20 23 6 36 15 34 23 -5 25 7 44 21 33 8 -7 18 -7 27 -2 23 15
30 12 30 -14 0 -33 14 -40 36 -19 22 23 61 43 68 35 10 -10 6 -23 -6 -21 -7 1
-21 1 -32 0 -15 -1 -16 -4 -6 -16 16 -20 -5 -48 -31 -40 -14 5 -16 1 -12 -15
3 -12 0 -20 -8 -20 -7 0 -9 3 -6 6 3 4 -6 16 -21 28 -26 21 -36 21 -37 1 0 -5
-8 -23 -19 -38 -10 -15 -16 -31 -12 -34 3 -4 14 3 22 16 13 17 19 20 30 10 21
-17 17 -32 -16 -64 -32 -31 -43 -60 -12 -32 10 10 24 17 31 17 7 0 10 4 6 10
-3 5 6 17 20 26 14 9 25 22 25 29 0 13 80 89 86 82 9 -9 -9 -37 -26 -42 -25
-8 -32 -32 -14 -50 19 -19 28 -19 44 0 16 19 39 19 46 1 5 -14 54 -17 54 -3 0
4 9 3 19 -3 38 -20 42 -6 10 29 l-22 23 29 23 c24 19 30 21 37 9 14 -25 29
-15 25 16 -4 24 -1 30 14 30 10 0 18 3 18 8 0 13 39 32 55 26 13 -5 11 -11
-11 -31 -14 -13 -23 -27 -19 -31 4 -4 10 -1 12 6 3 6 9 12 14 12 6 0 20 11 32
25 16 18 28 23 44 19 36 -10 42 -54 7 -54 -8 0 -14 -7 -14 -15 0 -9 -7 -27
-16 -40 -11 -16 -12 -25 -5 -25 6 0 14 7 17 15 4 8 13 15 21 15 10 0 13 -6 9
-16 -4 -10 -2 -14 6 -10 7 3 21 9 31 12 9 4 17 9 17 13 0 4 21 8 46 10 54 2
53 -2 -18 -67 -26 -25 -48 -49 -48 -54 0 -16 24 -3 49 26 15 17 35 39 46 50
11 12 28 32 38 46 9 13 27 25 39 26 49 5 68 16 68 40 0 24 14 32 25 14 3 -6 0
-16 -7 -24 -7 -7 -43 -45 -81 -85 -37 -39 -72 -71 -77 -71 -6 0 -10 -5 -10
-11 0 -7 -8 -18 -17 -25 -10 -7 -15 -15 -11 -19 4 -4 62 50 129 119 68 69 129
126 136 126 7 0 13 5 13 12 0 9 3 9 11 1 8 -8 16 -6 31 9 16 16 17 22 6 35
-12 15 -10 16 16 9 27 -7 28 -5 22 19 -6 24 -6 25 13 8 16 -13 18 -20 8 -31
-10 -13 -8 -14 13 -7 14 4 34 15 45 25 11 10 26 15 33 13 7 -3 19 1 27 7 12
10 15 9 15 -4 0 -9 4 -16 10 -16 5 0 7 6 4 14 -3 9 15 35 44 65 51 52 67 60
75 39 3 -8 6 -7 6 4 1 9 11 18 23 20 26 3 38 38 14 38 -18 0 -29 16 -21 31 5
6 11 4 19 -6 11 -15 13 -15 25 -1 8 9 18 16 24 16 12 0 51 42 55 60 3 14 -16
40 -30 40 -5 0 -6 -5 -2 -11 4 -8 0 -9 -15 -4 -14 4 -21 2 -22 -7 -1 -7 -5 5
-9 27 -5 27 -4 42 4 47 12 8 2 9 -25 1z"/>
<path d="M2741 3855 c-1 -35 2 -45 13 -45 11 0 18 -13 22 -40 4 -26 15 -45 30
-55 13 -8 24 -25 24 -36 0 -11 5 -17 10 -14 6 3 10 14 10 24 0 10 7 24 16 31
12 11 18 11 30 -2 13 -13 12 -17 -5 -37 -11 -12 -17 -29 -15 -36 8 -19 32 -8
30 13 -1 21 39 25 55 5 9 -10 7 -18 -7 -34 -18 -20 -18 -22 -1 -34 9 -6 17
-17 17 -23 0 -6 16 -27 35 -46 19 -20 35 -44 35 -55 0 -11 12 -28 28 -38 42
-28 51 -38 42 -53 -12 -19 -3 -30 25 -30 13 0 30 -7 39 -15 8 -8 21 -15 29
-15 7 0 29 -18 47 -40 33 -40 60 -49 90 -30 9 6 17 5 23 -3 5 -8 7 -5 5 8 -2
15 2 20 17 18 19 -1 19 -1 1 12 -14 11 -24 12 -39 4 -15 -9 -18 -8 -12 1 6 10
1 11 -19 6 -16 -4 -26 -2 -26 4 0 6 -8 10 -17 8 -12 -2 -17 3 -15 14 1 9 -2
19 -8 23 -16 10 -12 25 6 25 9 0 23 -8 30 -17 9 -12 16 -14 21 -7 5 6 15 11
25 11 13 0 14 -5 8 -23 -10 -26 -2 -38 17 -23 17 15 16 39 -2 63 -8 11 -16 29
-16 40 -1 17 -2 18 -6 4 -6 -25 -34 -23 -40 2 -3 12 -10 19 -16 17 -5 -1 -22
9 -37 23 -76 68 -89 80 -95 80 -3 0 -19 14 -34 31 -16 17 -35 31 -44 33 -9 1
-28 15 -43 32 -15 16 -37 36 -50 44 -33 22 -155 141 -188 183 -15 20 -31 37
-35 37 -4 0 -8 -20 -10 -45z"/>
<path d="M9214 3556 c-17 -12 -35 -30 -40 -41 -5 -10 -20 -22 -34 -25 -20 -5
-25 -12 -23 -36 2 -25 -3 -32 -27 -41 -19 -7 -30 -18 -30 -30 0 -26 -46 -88
-53 -71 -3 7 -6 1 -6 -14 -1 -16 4 -28 10 -28 6 0 8 -8 5 -17 -4 -11 4 -7 19
10 26 30 34 53 13 41 -9 -5 -8 -2 1 10 10 11 16 13 21 6 5 -7 19 4 39 29 31
38 31 57 2 29 -11 -11 -13 -10 -9 2 2 8 14 17 26 20 19 4 92 99 92 119 0 3 10
11 22 16 12 6 23 15 25 21 7 21 -22 21 -53 0z"/>
<path d="M8914 3541 c-17 -14 -34 -34 -37 -44 -4 -10 -11 -16 -15 -13 -13 8
-82 -70 -82 -92 0 -11 -6 -25 -14 -31 -8 -7 -17 -23 -20 -37 -5 -20 -10 -23
-26 -14 -27 14 -30 13 -30 -12 -1 -26 -22 -58 -39 -58 -6 0 -12 -10 -13 -22
-1 -13 -2 -30 -4 -38 -1 -8 -2 -24 -3 -35 -2 -19 -2 -19 -12 -2 -13 22 -29 13
-29 -17 0 -20 -27 -56 -42 -56 -3 0 -9 10 -13 23 -6 20 -8 20 -12 3 -3 -10 0
-22 7 -26 15 -9 3 -53 -13 -47 -7 2 -11 11 -9 21 4 23 -11 20 -26 -5 -12 -18
-21 -21 -58 -16 -24 2 -44 1 -44 -3 0 -10 -68 -27 -105 -25 -18 1 -35 -5 -45
-17 -8 -10 -28 -20 -43 -22 -15 -1 -33 -8 -39 -14 -15 -15 -28 -15 -28 -2 0 6
8 10 17 10 12 0 14 3 6 11 -12 12 -53 3 -53 -12 0 -5 5 -9 10 -9 6 0 10 -4 10
-8 0 -16 -81 -13 -97 3 -23 23 -38 12 -35 -25 2 -26 -1 -31 -13 -26 -9 3 -21
1 -28 -4 -53 -43 -76 -56 -99 -58 -15 -1 -30 3 -33 8 -3 6 -17 10 -31 10 -23
0 -28 -9 -25 -38 1 -6 -10 -18 -25 -24 -24 -11 -28 -10 -41 9 -12 17 -21 20
-49 16 -23 -4 -34 -2 -34 6 0 7 -4 9 -10 6 -17 -10 -11 -25 9 -25 10 0 21 -9
24 -20 3 -11 11 -19 17 -18 7 2 14 -2 17 -8 5 -15 -49 -25 -64 -12 -18 15 -42
3 -53 -27 -16 -41 -39 -43 -73 -5 l-29 33 -32 -32 c-17 -18 -24 -29 -15 -26
11 4 18 -1 22 -14 5 -21 -16 -30 -27 -12 -3 4 -18 6 -32 3 -20 -4 -25 -2 -19
8 5 8 3 11 -6 8 -8 -3 -14 -19 -15 -36 0 -17 -8 -40 -19 -51 l-18 -21 -19 22
-18 21 -25 -23 c-13 -12 -23 -28 -22 -34 1 -7 -14 -10 -43 -8 -42 3 -44 3 -25
-11 14 -11 24 -12 32 -5 7 6 13 7 13 3 0 -7 -81 -85 -88 -85 -2 0 -2 6 1 14 4
10 -4 17 -25 22 -26 5 -35 2 -50 -16 -10 -12 -18 -34 -19 -49 0 -25 0 -25 -9
-3 -8 19 -34 33 -28 15 2 -5 -7 -18 -19 -30 -26 -26 -30 -45 -8 -37 8 4 15 1
15 -6 0 -8 -8 -10 -22 -7 -16 5 -30 -4 -57 -32 -43 -45 -61 -53 -79 -35 -11
12 -9 16 13 24 14 5 25 14 25 20 0 6 8 10 18 8 9 -2 16 3 14 10 -1 6 4 12 12
12 7 0 19 6 25 14 10 11 7 14 -16 12 -27 -1 -46 -14 -143 -102 -25 -23 -55
-45 -67 -48 -13 -4 -23 -14 -23 -22 0 -8 -4 -14 -8 -14 -17 0 -81 -72 -76 -85
3 -7 17 -16 31 -20 15 -3 37 -14 50 -24 13 -11 40 -19 63 -19 22 0 44 -4 50
-7 6 -4 10 8 10 29 0 20 5 36 10 36 6 0 10 -4 10 -9 0 -5 7 -12 16 -15 8 -3
12 -2 9 4 -3 6 -2 10 4 10 5 0 11 -5 13 -11 7 -22 47 8 43 32 -2 11 2 22 10
24 8 3 23 8 33 12 20 7 17 7 62 -1 19 -3 30 -3 24 2 -6 4 -14 20 -18 36 -7 28
-6 29 27 23 41 -6 79 15 70 39 -4 10 -1 15 8 13 8 -1 22 1 33 6 11 5 21 4 25
-3 9 -15 56 9 56 28 0 20 113 132 125 125 6 -4 10 -12 10 -20 0 -8 7 -11 20
-8 14 4 21 -1 26 -22 5 -21 12 -26 28 -23 17 4 21 -1 21 -25 0 -24 -7 -33 -41
-51 -26 -13 -39 -26 -36 -35 3 -8 0 -11 -7 -7 -18 11 -13 26 14 38 13 6 22 15
19 19 -3 5 2 9 10 9 17 0 21 15 7 24 -5 4 -11 0 -14 -6 -3 -10 -9 -10 -27 1
-21 12 -25 11 -37 -5 -15 -21 -17 -44 -3 -44 6 0 10 -7 10 -16 0 -11 -5 -14
-16 -10 -22 8 -64 -4 -64 -18 0 -13 -41 -56 -53 -56 -4 0 -2 10 4 23 11 20 11
21 -4 8 -12 -9 -17 -10 -17 -2 0 8 -11 11 -27 9 -20 -2 -29 -9 -31 -25 -3 -18
1 -20 18 -16 16 4 18 8 8 14 -8 5 -9 9 -2 9 15 0 39 -29 30 -37 -3 -3 -14 -7
-24 -8 -26 -3 -69 -22 -77 -35 -4 -6 -26 -8 -56 -6 -55 6 -72 13 -64 27 10 16
-32 10 -45 -6 -11 -13 -10 -18 8 -31 13 -9 19 -21 15 -30 -5 -13 -16 -15 -58
-10 -29 3 -55 3 -58 0 -10 -10 4 -34 20 -34 8 0 27 -7 43 -15 17 -9 30 -11 30
-5 0 5 12 10 28 10 l27 -1 -24 -19 c-12 -11 -27 -17 -32 -14 -5 3 -9 0 -9 -5
0 -17 18 -13 58 14 29 20 44 23 74 18 32 -5 43 -2 62 17 20 18 28 20 45 10 23
-12 34 -8 67 21 12 11 37 20 62 21 28 1 39 5 33 11 -7 7 -2 16 12 27 36 27 53
29 83 10 20 -14 30 -16 35 -8 9 14 0 38 -13 38 -6 0 -8 -7 -5 -14 4 -10 1 -13
-8 -9 -18 6 -4 37 20 47 8 3 15 12 15 21 0 14 2 14 24 0 26 -17 60 -10 52 11
-8 21 4 43 20 37 8 -3 31 12 53 35 33 34 42 38 52 26 6 -8 17 -14 23 -14 6 0
5 4 -3 9 -11 7 -11 10 2 17 8 5 16 18 19 29 2 14 11 20 31 20 28 0 50 21 40
39 -3 5 -2 6 4 3 6 -4 34 19 63 50 37 39 55 52 60 43 4 -7 13 -9 19 -6 6 4 11
0 11 -9 0 -19 22 -15 28 5 3 7 0 10 -6 6 -16 -9 -24 9 -16 39 5 19 12 25 34
25 25 0 29 4 27 27 -2 23 4 29 30 38 18 6 39 18 45 27 17 22 53 27 53 8 0 -8
-7 -14 -17 -12 -9 1 -19 -2 -23 -8 -3 -5 0 -10 7 -10 10 0 10 -2 -1 -9 -8 -5
-9 -11 -3 -15 6 -3 13 -2 17 4 3 5 11 10 16 10 6 0 7 -4 4 -10 -3 -5 -6 -38
-6 -72 -1 -57 -2 -61 -15 -44 -8 11 -14 16 -14 11 0 -5 7 -16 16 -26 8 -9 18
-42 21 -73 5 -48 3 -56 -11 -56 -22 0 -20 -27 2 -39 17 -9 18 -17 10 -71 -4
-34 -5 -66 -2 -71 12 -19 26 -119 28 -194 1 -22 4 -42 8 -45 4 -3 9 -57 12
-120 3 -63 8 -130 12 -148 4 -21 1 -43 -6 -58 -10 -18 -11 -29 -2 -46 17 -36
26 -92 13 -84 -6 4 -11 2 -11 -3 0 -6 4 -11 10 -11 15 0 22 -43 11 -70 -5 -14
-10 -19 -10 -12 -2 24 -36 12 -65 -23 -16 -19 -35 -35 -42 -35 -14 0 -24 -22
-24 -52 0 -11 -9 -33 -21 -49 -12 -17 -18 -37 -14 -48 5 -17 -21 -51 -34 -42
-3 2 -12 -7 -18 -20 l-13 -24 0 27 c0 15 8 34 17 44 9 9 19 26 20 37 2 11 11
26 21 33 24 18 11 25 -18 10 -18 -9 -24 -20 -23 -39 1 -18 -4 -28 -18 -32 -17
-6 -20 -14 -17 -48 2 -26 8 -41 15 -40 7 2 24 -2 39 -7 18 -7 41 -6 79 4 30 8
56 11 59 8 6 -6 9 13 7 39 -1 10 8 19 25 23 36 9 41 0 13 -23 l-24 -19 35 -9
c33 -9 35 -11 37 -57 1 -26 6 -53 12 -60 9 -11 9 -75 0 -211 0 -11 0 -29 1
-40 6 -56 -4 -152 -18 -174 -9 -13 -16 -45 -16 -74 0 -36 -5 -56 -18 -69 -10
-10 -18 -24 -18 -30 0 -8 7 -5 15 6 15 19 15 19 15 -1 0 -12 -5 -23 -12 -25
-6 -2 -11 -24 -10 -54 0 -27 -5 -56 -13 -64 -7 -8 -16 -30 -20 -47 -3 -18 -12
-34 -18 -35 -7 0 -16 -2 -22 -3 -5 -2 -16 -3 -22 -4 -7 0 -13 -5 -13 -10 0 -5
15 -5 35 -1 31 7 35 6 35 -12 0 -10 -3 -17 -7 -15 -5 3 -8 -8 -9 -24 -1 -16 3
-29 9 -29 5 0 6 -11 3 -25 -6 -24 -4 -25 34 -25 42 0 51 14 28 39 -7 8 -1 6
15 -4 15 -9 27 -21 27 -26 0 -5 32 -9 70 -9 60 0 70 2 70 18 0 14 -2 15 -10 2
-8 -13 -10 -12 -10 3 0 9 -6 17 -14 17 -14 0 -32 18 -25 24 2 2 14 7 27 10 17
6 22 3 22 -12 0 -22 40 -62 62 -62 9 0 21 7 28 15 7 8 16 12 21 9 5 -3 9 4 9
15 0 12 4 21 9 21 5 0 12 10 15 22 7 22 7 23 17 3 7 -15 8 -8 5 25 -3 25 -8
53 -11 62 -4 10 1 24 14 35 24 20 28 58 7 66 -9 4 -12 14 -9 26 3 13 1 21 -6
21 -7 0 -9 5 -6 10 4 6 12 7 18 3 9 -5 9 -3 0 8 -14 18 -11 97 5 126 16 30 15
38 -3 23 -14 -11 -14 -10 -5 14 13 34 13 37 0 34 -17 -5 -20 147 -4 178 16 31
18 60 4 69 -5 3 -10 16 -10 28 0 12 -6 33 -13 47 -28 53 -29 63 -7 57 11 -3
21 -1 21 4 1 5 2 12 3 17 16 65 17 75 7 85 -12 12 -15 87 -3 87 4 0 7 14 7 30
0 17 -3 30 -7 30 -4 0 -6 36 -4 81 3 69 6 82 25 95 16 12 21 24 19 49 -1 19 1
37 4 41 11 10 30 -7 24 -22 -3 -8 0 -14 6 -14 7 0 7 -4 -1 -14 -9 -10 -8 -15
3 -19 25 -10 30 30 7 55 -36 38 -19 71 30 61 32 -6 39 10 15 36 -21 23 -9 69
17 73 18 2 23 12 29 53 8 56 26 75 75 75 37 0 37 -1 23 34 -7 19 -16 25 -32
23 -30 -3 -38 32 -9 40 12 3 21 10 21 15 0 5 10 8 21 6 13 -2 27 5 36 20 10
14 11 22 4 22 -14 0 -14 47 0 56 6 3 15 1 19 -6 6 -9 9 -6 12 11 2 16 11 25
26 27 24 4 27 14 12 42 -8 15 -4 24 20 46 24 24 44 66 41 89 -2 12 46 50 64
50 17 0 20 7 20 40 0 31 4 43 22 53 14 7 23 22 23 36 0 32 57 142 84 164 13
10 27 29 31 42 4 14 15 34 25 45 10 11 21 31 25 45 10 35 24 50 47 50 17 0 19
5 14 33 -5 29 -3 35 19 47 14 8 24 19 21 26 -2 6 6 29 20 50 13 22 24 47 24
56 0 20 39 50 53 41 6 -4 8 3 4 16 -8 31 1 51 24 51 15 0 18 5 13 24 -5 19 0
28 23 42 15 10 30 19 32 21 2 1 -2 9 -8 17 -11 12 -8 20 13 41 15 15 24 30 21
35 -9 15 7 41 33 51 23 9 23 11 9 27 -15 16 -15 20 3 50 24 39 24 38 5 46 -22
8 -45 -4 -45 -24 0 -9 -9 -25 -20 -35 -11 -10 -20 -24 -20 -32 0 -7 -7 -25
-16 -38 -20 -30 -101 -181 -116 -217 -7 -16 -16 -28 -20 -28 -4 0 -8 -9 -8
-19 0 -11 -5 -23 -10 -26 -6 -4 -19 -24 -31 -46 -11 -22 -33 -54 -50 -71 -16
-17 -29 -35 -29 -40 0 -6 -10 -24 -22 -41 -13 -17 -27 -39 -33 -48 -30 -48
-71 -105 -82 -112 -7 -4 -13 -14 -13 -22 0 -8 -8 -19 -18 -24 -10 -5 -24 -22
-32 -38 -23 -46 -71 -104 -81 -98 -5 4 -6 -2 -3 -12 5 -16 4 -16 -10 2 -16 19
-16 19 -13 -5 6 -35 -13 -73 -50 -104 -18 -15 -33 -35 -33 -45 0 -9 -9 -24
-20 -34 -11 -9 -20 -23 -20 -30 0 -16 -55 -77 -69 -77 -6 0 -11 -6 -11 -14 0
-8 -7 -16 -15 -20 -8 -3 -15 -13 -15 -22 0 -9 -11 -29 -25 -46 -14 -16 -25
-35 -25 -42 0 -7 -12 -28 -26 -47 -14 -19 -32 -49 -40 -66 -9 -22 -21 -33 -34
-33 -21 0 -24 -5 -34 -51 -3 -14 -17 -31 -31 -37 -15 -7 -25 -20 -25 -32 0
-29 -14 -25 -44 15 -32 42 -26 64 11 39 l26 -16 -9 63 c-4 35 -9 87 -9 114 0
28 -6 69 -13 93 -14 46 -10 64 12 56 8 -3 17 -1 21 5 3 7 -2 11 -14 11 -27 0
-32 11 -42 89 -13 101 -15 117 -23 129 -3 6 -1 14 5 17 6 5 8 20 5 40 -5 24
-2 36 11 46 14 12 16 12 8 0 -5 -10 -4 -12 3 -7 32 19 -5 54 -42 40 -9 -4 -16
-1 -16 6 0 6 -9 23 -20 37 -35 45 -18 73 22 36 17 -15 18 -15 18 2 0 101 12
275 21 305 7 24 33 60 70 96 33 32 59 62 59 65 0 4 12 21 28 37 44 47 72 83
72 93 0 4 13 23 28 41 15 18 36 45 45 61 10 15 24 27 32 27 8 0 15 7 15 16 0
9 9 27 20 41 11 14 20 31 20 38 0 6 10 20 21 31 12 10 33 37 47 59 14 22 31
44 38 48 8 4 14 13 14 20 1 16 35 57 48 57 10 0 5 37 -7 44 -3 2 -20 -8 -37
-23z"/>
<path d="M3404 3370 c0 -33 3 -57 8 -54 9 6 7 -48 -2 -56 -3 -3 -11 -15 -18
-27 -10 -20 -10 -23 4 -23 11 0 15 -6 11 -20 -6 -23 3 -26 22 -7 12 10 13 8 6
-8 -4 -11 -10 -33 -13 -49 -4 -26 -2 -28 17 -23 15 4 24 0 28 -11 12 -31 43
-43 43 -16 0 14 3 14 15 4 11 -9 13 -16 5 -24 -27 -27 -7 -31 45 -10 13 5 8
-2 -11 -19 -35 -29 -44 -33 -44 -16 0 11 -25 39 -35 39 -3 0 -3 -4 0 -10 3 -5
-1 -10 -9 -10 -9 0 -16 -9 -16 -20 0 -11 7 -20 15 -20 8 0 15 -5 15 -10 0 -6
3 -9 8 -9 17 3 19 -3 12 -43 -6 -30 -4 -45 6 -55 12 -12 15 -12 20 2 4 9 2 21
-5 28 -16 16 -14 47 4 47 9 0 18 -6 21 -14 3 -8 12 -17 20 -20 8 -3 13 -2 10
3 -3 5 0 14 8 20 11 9 15 9 18 -1 4 -10 8 -10 19 -2 14 12 59 11 78 0 5 -4 13
-2 16 4 10 15 35 -7 35 -31 0 -10 -9 -23 -20 -29 -15 -8 -19 -17 -15 -31 5
-14 0 -22 -17 -28 -21 -9 -22 -10 -2 -10 11 -1 29 -8 40 -16 26 -19 35 -19 27
3 -6 16 -6 16 11 -1 24 -24 5 -49 -33 -42 -14 3 -20 2 -13 -1 17 -8 15 -22 -5
-27 -16 -4 -7 -6 55 -11 7 -1 24 -12 37 -24 20 -20 22 -27 14 -49 -14 -38 -4
-56 25 -49 19 5 26 1 31 -15 4 -12 12 -18 21 -15 8 3 24 -4 35 -15 11 -11 27
-18 35 -15 8 3 14 1 14 -4 0 -6 11 -10 25 -10 14 0 28 -6 31 -14 3 -8 19 -20
36 -27 31 -12 34 -33 13 -81 -5 -13 -3 -18 8 -18 21 0 33 20 17 30 -9 6 -9 9
0 15 14 9 27 -3 32 -30 2 -11 10 -20 19 -20 8 0 27 -8 42 -18 14 -9 28 -17 30
-17 3 0 21 -15 42 -34 22 -20 32 -36 26 -41 -6 -3 -11 -11 -11 -18 0 -6 8 0
17 13 10 14 17 29 15 34 -2 5 4 6 13 2 9 -3 23 -6 31 -6 12 0 13 -8 4 -50 0
-3 -5 3 -10 12 -9 15 -12 15 -34 -5 -25 -22 -27 -39 -3 -18 11 9 17 8 27 -4 7
-8 20 -15 30 -15 9 0 25 -9 35 -20 10 -11 24 -20 32 -20 7 0 25 -7 38 -16 26
-17 34 -7 13 14 -7 7 -9 12 -4 12 17 0 31 -27 32 -63 2 -45 11 -58 28 -36 11
15 13 15 33 -1 12 -9 39 -20 60 -23 21 -4 50 -18 65 -32 15 -14 35 -25 45 -25
27 0 47 -16 40 -33 -9 -24 20 -44 44 -29 16 10 19 9 19 -3 0 -8 11 -17 25 -21
14 -3 25 -12 25 -20 0 -8 5 -14 10 -14 6 0 10 -16 10 -36 0 -20 6 -42 14 -48
21 -17 30 -66 11 -66 -9 0 -15 -9 -15 -25 0 -16 6 -25 15 -25 8 0 15 -4 15
-10 0 -5 7 -10 15 -10 8 0 15 -4 15 -10 0 -5 -5 -10 -10 -10 -6 0 -9 -4 -8 -9
2 -5 -6 -16 -17 -25 -16 -12 -18 -18 -9 -33 7 -10 18 -17 27 -15 18 3 26 -17
23 -52 -2 -14 1 -26 5 -26 5 0 9 -7 9 -16 0 -12 -7 -15 -29 -12 -17 2 -28 1
-25 -4 3 -4 14 -8 25 -8 10 0 19 -3 20 -7 8 -52 5 -74 -7 -69 -7 3 -16 0 -20
-6 -5 -7 -2 -8 6 -3 10 6 12 4 6 -10 -4 -11 -2 -22 6 -26 22 -14 26 -162 6
-186 -7 -9 -7 -13 1 -13 6 0 11 -5 11 -11 0 -7 -9 -9 -22 -6 -23 6 -23 6 -3
-9 18 -13 20 -27 20 -109 0 -83 -2 -94 -19 -99 -10 -2 -15 -10 -11 -15 3 -6
10 -9 15 -6 4 3 9 -5 9 -18 10 -159 10 -201 -2 -215 -10 -13 -9 -14 2 -7 11 6
13 3 7 -18 -3 -14 -3 -28 2 -31 8 -5 9 -46 0 -62 -2 -5 -3 -27 -2 -49 2 -22 3
-105 2 -185 -1 -138 -1 -161 2 -237 1 -38 13 -49 31 -27 10 13 10 17 -1 24
-11 7 -11 11 -1 24 8 9 22 16 32 16 14 0 19 7 19 25 0 14 -5 25 -11 25 -5 0
-8 4 -4 9 3 5 1 12 -4 15 -5 4 -12 -3 -16 -14 -9 -28 -25 -25 -25 5 0 18 7 28
26 35 14 6 34 20 45 33 19 22 19 22 15 -35 -2 -32 0 -55 4 -53 4 3 11 -2 14
-11 8 -22 8 -24 -6 -24 -21 0 -36 -43 -25 -68 8 -18 19 -22 53 -22 40 0 72 19
46 28 -22 7 -12 30 15 35 38 7 45 0 38 -34 -6 -28 -6 -29 34 -29 36 0 41 3 42
23 5 116 2 337 -3 337 -13 0 -8 34 7 54 20 26 19 42 -1 25 -14 -11 -15 -6 -13
47 2 43 8 63 21 74 17 14 17 17 4 35 -14 18 -15 18 -16 3 0 -10 -5 -18 -10
-18 -17 0 1 83 21 103 24 23 24 38 -1 44 -24 6 -27 50 -5 79 18 23 19 55 3 52
-8 -2 -14 11 -16 35 -2 20 1 37 7 37 17 0 35 41 22 50 -17 10 -23 60 -10 76 9
11 9 20 -1 39 -7 14 -11 40 -8 62 3 21 2 63 -2 93 -6 43 -5 58 8 70 8 8 12 9
8 3 -4 -7 -2 -13 3 -13 16 0 13 21 -3 34 -19 15 -24 70 -8 89 10 11 10 17 1
22 -6 4 -14 3 -18 -4 -13 -21 -9 61 5 87 12 24 11 29 -6 47 -22 23 -26 55 -9
72 8 8 8 13 0 17 -16 10 -14 46 2 46 8 0 17 -3 21 -7 4 -5 11 -8 14 -9 38 -3
120 -40 128 -58 6 -14 18 -21 39 -22 17 0 40 -6 52 -12 13 -7 24 -8 27 -3 4 5
19 3 36 -5 35 -18 44 -30 30 -39 -18 -11 -10 -26 13 -24 12 1 29 -1 37 -4 8
-3 42 -8 75 -11 33 -3 61 -10 63 -15 2 -5 19 -7 39 -5 19 2 40 0 47 -5 6 -5
29 -6 51 -2 49 9 65 5 65 -17 0 -13 3 -13 16 4 14 17 15 17 10 1 -3 -10 -6
-23 -6 -28 0 -18 -28 -8 -33 12 -8 31 -43 21 -39 -11 1 -18 -1 -21 -7 -11 -6
10 -13 11 -29 2 -25 -13 -43 -14 -22 -1 8 5 11 12 7 16 -9 10 -38 -16 -31 -28
4 -5 18 -8 32 -5 14 3 36 1 49 -4 14 -5 25 -4 29 2 4 6 11 6 20 -2 8 -6 14 -8
14 -4 0 4 6 2 14 -4 11 -9 20 -9 35 -2 14 8 22 8 26 1 5 -8 12 -7 22 2 12 10
17 9 28 -5 9 -13 14 -14 17 -5 3 8 28 13 71 15 59 2 66 1 60 -15 -6 -15 -5
-16 12 -2 17 14 18 13 12 -3 -4 -11 -1 -20 8 -23 18 -7 20 -25 3 -21 -7 1 -12
-4 -10 -11 1 -8 -2 -11 -8 -7 -6 3 -8 11 -5 16 4 5 2 9 -3 9 -5 0 -12 -8 -16
-17 -3 -10 -9 -24 -12 -30 -3 -7 -1 -13 6 -13 6 0 8 5 5 10 -3 6 1 10 9 10 8
0 18 -5 21 -11 4 -5 12 -8 18 -6 7 2 22 0 35 -4 13 -5 22 -5 22 1 0 6 9 10 20
10 11 0 20 -4 20 -10 0 -5 13 -10 29 -10 17 0 33 -5 36 -10 4 -6 14 -8 23 -6
10 3 41 -1 71 -9 30 -8 59 -11 64 -8 6 3 7 1 3 -5 -5 -8 1 -12 18 -12 14 0 28
-5 31 -11 4 -6 14 -8 22 -5 9 4 21 2 28 -4 9 -8 17 -6 29 5 20 21 21 46 1 39
-8 -4 -15 -9 -15 -13 0 -3 -15 -6 -32 -6 -28 0 -33 4 -36 27 -2 14 -9 32 -17
38 -8 6 -11 19 -8 27 4 10 2 14 -4 10 -6 -4 -14 -1 -17 5 -2 7 -4 -1 -3 -18 1
-22 5 -30 14 -27 9 4 11 0 7 -11 -9 -23 -21 -20 -30 6 -4 13 -14 28 -22 34
-14 10 -13 13 4 22 10 5 31 9 47 7 15 -2 27 1 27 6 0 17 38 -10 45 -31 3 -11
14 -20 23 -20 13 0 14 2 4 9 -11 7 -10 9 3 15 23 8 9 26 -22 26 -18 0 -24 4
-20 14 3 8 -1 17 -9 20 -8 3 -14 12 -14 21 0 14 -3 14 -27 -1 -28 -16 -28 -16
1 9 32 28 46 27 46 -3 0 -14 7 -18 35 -17 19 1 36 6 39 13 6 15 -43 49 -66 46
-27 -5 -32 18 -9 42 19 18 23 19 31 6 7 -11 10 -6 10 20 0 42 37 82 78 84 37
2 52 13 52 40 0 16 10 27 40 40 50 22 42 38 -15 31 -32 -4 -44 -1 -49 10 -6
18 -37 20 -53 4 -15 -15 -33 -3 -33 21 0 34 -58 41 -78 10 -14 -23 -50 -40
-69 -33 -18 7 -16 23 3 44 18 21 12 49 -10 49 -23 0 -40 -38 -25 -56 9 -11 8
-14 -5 -14 -9 0 -16 5 -16 10 0 6 -5 10 -11 10 -6 0 -9 -9 -6 -19 4 -15 -2
-22 -24 -30 -17 -6 -27 -6 -24 -1 3 4 0 10 -6 12 -5 2 -7 11 -3 21 4 12 12 16
23 12 10 -4 7 3 -8 19 -21 22 -22 26 -7 32 22 8 20 31 -4 44 -23 12 -40 6 -40
-14 0 -33 -31 -74 -60 -78 -37 -6 -57 13 -35 32 23 19 18 40 -10 40 -14 0 -25
-6 -25 -13 0 -7 -14 -29 -30 -48 -26 -28 -33 -31 -40 -19 -5 8 -10 21 -11 28
-3 27 -4 31 -11 38 -12 11 -10 26 2 19 6 -3 10 1 10 9 0 9 5 16 10 16 6 0 10
6 10 14 0 8 7 16 15 20 21 8 19 28 -6 50 -24 20 -39 9 -39 -31 0 -12 -4 -25
-10 -28 -5 -3 -10 -17 -10 -31 0 -14 -7 -27 -17 -31 -10 -4 -24 -13 -31 -20
-16 -16 -33 -17 -30 -2 2 6 -3 14 -11 17 -9 3 -11 0 -6 -8 6 -9 1 -10 -16 -4
-13 4 -38 8 -55 8 -17 1 -39 9 -48 19 -18 17 -18 19 0 32 16 11 17 16 6 27
-11 11 -12 10 -7 -4 4 -10 3 -18 -3 -18 -6 0 -12 6 -15 13 -2 6 -3 4 -2 -5 4
-22 -7 -29 -25 -18 -10 6 -20 4 -32 -6 -20 -19 -60 -10 -56 13 2 8 -7 19 -19
24 -19 7 -23 5 -23 -11 0 -31 -19 -33 -68 -8 -34 18 -55 22 -74 17 -22 -6 -31
-2 -52 22 -24 27 -56 31 -56 7 0 -23 -89 26 -90 50 0 17 -30 15 -30 -2 0 -10
-7 -12 -22 -9 -37 9 -56 31 -50 58 5 28 -12 34 -26 9 -8 -14 -14 -15 -45 -5
-41 14 -64 36 -47 46 18 11 100 9 112 -3 20 -20 98 -13 98 9 0 5 -8 8 -17 7
-10 -1 -38 0 -62 0 -37 2 -42 5 -36 20 5 13 4 14 -6 5 -18 -18 -54 14 -38 34
17 20 31 16 24 -8 -6 -18 -5 -19 13 -8 27 17 16 39 -20 39 -21 0 -31 -6 -35
-20 -7 -26 -43 -26 -50 0 -5 20 -19 24 -57 20 -10 -1 -22 3 -26 10 -4 6 -27
12 -51 13 -26 2 -61 13 -83 27 -29 17 -43 21 -55 13 -11 -7 -36 -6 -80 3 -36
8 -67 11 -70 9 -2 -3 -17 7 -32 21 -27 26 -29 26 -53 10 -33 -21 -46 -20 -46
4 0 11 -4 20 -10 20 -5 0 -10 -7 -10 -15 0 -32 -27 -11 -82 62 -41 53 -58 85
-58 106 0 29 -1 29 -18 14 -10 -10 -21 -17 -25 -17 -13 0 -41 65 -38 89 1 13
-2 21 -7 17 -5 -3 -8 -17 -7 -31 2 -14 -1 -27 -6 -31 -5 -3 -2 -12 6 -20 17
-17 20 -44 5 -44 -16 0 -51 40 -45 50 4 6 -9 10 -29 10 -29 0 -36 4 -36 20 0
25 8 25 27 3 8 -10 12 -12 8 -5 -3 6 -2 12 3 12 5 0 9 14 9 30 0 23 -4 29 -14
25 -8 -3 -21 -5 -28 -5 -7 0 -11 -8 -9 -17 2 -10 0 -25 -5 -33 -8 -12 -13 -12
-30 4 -27 25 -28 72 -1 86 26 14 25 31 -5 53 -27 19 -40 9 -30 -23 5 -14 2
-20 -9 -20 -9 0 -16 -7 -16 -15 0 -14 -3 -13 -25 1 -18 12 -25 24 -23 42 3 29
-25 43 -45 23 -9 -9 -6 -13 11 -17 26 -7 30 -24 5 -24 -34 1 -53 25 -53 69 0
49 -19 55 -40 14 -8 -16 -15 -30 -17 -32 -5 -8 -35 32 -42 57 -7 24 -12 27
-44 24 -33 -3 -37 0 -37 21 0 26 -26 45 -32 25 -7 -21 -36 0 -53 40 -15 34
-22 39 -48 38 -26 -1 -31 3 -39 32 -6 24 -14 32 -31 32 -30 0 -47 18 -47 48 0
19 -4 22 -20 17 -13 -4 -22 -1 -26 9 -3 9 -17 16 -29 16 -16 0 -26 8 -31 23
-8 25 -38 57 -55 57 -6 0 -9 6 -6 14 3 8 -2 16 -12 19 -10 2 -25 21 -35 41 -9
20 -23 36 -31 36 -10 0 -15 11 -15 31 0 22 -4 30 -14 26 -7 -3 -19 0 -26 6
-10 10 -12 8 -7 -6 5 -14 3 -18 -11 -15 -9 2 -17 10 -18 18 -3 34 -17 101 -23
104 -3 2 -6 -22 -7 -54z m796 -925 c0 -20 82 -58 91 -43 4 7 11 2 18 -11 12
-22 63 -48 113 -56 52 -10 107 -37 113 -56 7 -20 31 -26 37 -8 2 6 14 8 32 3
26 -6 27 -8 13 -19 -10 -7 -17 -17 -17 -24 0 -6 -7 -11 -15 -11 -8 0 -15 7
-15 16 0 10 -6 14 -14 11 -9 -4 -21 5 -31 19 -9 14 -20 22 -25 19 -14 -8 -12
-49 1 -62 7 -7 9 -19 5 -29 -7 -17 -21 -11 -21 9 -1 7 -7 11 -14 9 -9 -2 -12
4 -8 18 3 11 1 20 -5 20 -6 0 -8 -13 -6 -29 4 -29 4 -29 -19 -13 -12 10 -22
26 -21 37 1 11 0 27 -1 35 -2 19 -70 48 -104 44 -18 -2 -27 2 -27 12 0 8 -7
14 -15 14 -8 0 -15 5 -15 10 0 6 -7 10 -15 10 -18 0 -20 16 -2 23 6 3 -1 4
-18 4 -16 -1 -33 -6 -37 -12 -5 -7 -4 48 1 73 3 10 21 -1 21 -13z m1130 -1894
c-5 -10 -6 -21 -3 -25 3 -3 7 -28 8 -56 1 -36 -2 -50 -12 -50 -7 0 -13 5 -13
10 0 6 -6 10 -14 10 -8 0 -16 3 -19 8 -2 4 -2 1 -1 -5 7 -27 -8 -43 -32 -37
-14 4 -24 2 -24 -4 0 -6 -3 -19 -7 -29 -6 -15 -4 -16 9 -5 20 16 39 -5 42 -45
1 -15 6 -38 10 -51 5 -16 3 -24 -8 -28 -8 -3 -13 -11 -10 -17 3 -8 -12 -13
-43 -14 l-47 -2 28 24 c22 19 27 30 22 49 -3 14 -16 31 -28 37 -18 10 -24 8
-40 -14 -11 -15 -25 -24 -33 -20 -24 9 -17 -13 8 -25 l22 -11 -22 -7 c-13 -3
-20 -10 -17 -15 3 -5 -4 -9 -14 -9 -33 0 -38 47 -8 76 17 18 26 21 29 12 4 -9
6 -9 6 -1 1 6 -6 18 -14 26 -25 26 -28 61 -5 75 17 10 23 9 39 -7 11 -11 16
-22 13 -26 -6 -6 16 -25 31 -25 4 0 7 11 7 25 0 14 -5 25 -12 25 -6 0 -4 7 5
18 10 10 17 26 17 35 0 11 12 18 38 22 56 10 62 13 62 34 0 11 5 23 10 26 6 3
10 15 10 26 0 11 5 17 10 14 7 -4 7 -12 0 -24z"/>
<path d="M7494 1786 c-4 -10 -17 -12 -48 -9 -48 6 -65 -7 -39 -28 13 -11 17
-11 20 -1 3 6 11 12 19 12 9 0 13 -4 10 -9 -6 -8 22 -38 32 -34 3 1 9 7 14 15
5 8 6 4 3 -13 -6 -24 -4 -26 19 -22 14 3 32 1 39 -5 6 -5 29 -15 50 -21 20 -7
37 -16 37 -21 0 -4 9 -6 20 -3 11 3 38 -4 61 -16 32 -17 40 -19 36 -7 -4 9 -2
18 3 21 6 4 10 -3 10 -14 0 -15 10 -23 43 -31 23 -6 64 -18 90 -27 27 -8 57
-13 68 -10 13 4 19 0 19 -11 0 -14 2 -15 9 -3 14 22 -18 42 -43 29 -14 -8 -17
-7 -11 2 5 8 3 11 -6 8 -7 -2 -22 4 -33 14 -11 10 -26 18 -35 18 -8 0 -52 18
-98 40 -46 23 -88 38 -93 35 -5 -3 -14 4 -20 15 -11 20 -50 28 -50 10 0 -23
-18 -8 -23 20 -7 33 -32 40 -51 14 -7 -9 -18 -12 -29 -8 -20 7 -22 25 -5 42 9
9 9 12 0 12 -7 0 -15 -6 -18 -14z"/>
<path d="M810 954 c-8 -21 -13 -52 -12 -67 4 -30 -21 -67 -45 -67 -7 0 -13 9
-13 20 0 23 -15 27 -23 7 -3 -7 4 -19 14 -25 10 -7 19 -21 19 -33 0 -11 5 -17
10 -14 6 3 10 -1 10 -9 0 -9 -7 -16 -15 -16 -8 0 -15 5 -15 10 0 6 -4 10 -9
10 -13 0 -31 -50 -35 -96 -2 -21 -4 -42 -5 -45 -2 -11 -36 -6 -52 8 -15 13
-16 10 -13 -33 3 -54 11 -66 26 -39 6 10 24 31 40 46 16 14 31 37 33 50 6 44
17 69 30 69 17 0 38 47 22 53 -7 2 -2 16 16 36 15 18 27 45 27 60 0 16 12 40
31 60 16 18 28 35 26 37 -2 3 -10 -2 -17 -11 -17 -21 -28 -19 -32 7 -2 17 -6
14 -18 -18z"/>
</g>
</svg>
